<?xml version="1.0" encoding="UTF-8"?>
<svg xmlns="http://www.w3.org/2000/svg" xmlns:xlink="http://www.w3.org/1999/xlink" width="147px" height="27px" viewBox="0 0 147 27" version="1.1">
<g id="surface1">
<path style=" stroke:none;fill-rule:nonzero;fill:rgb(12.941177%,12.941177%,12.941177%);fill-opacity:1;" d="M 0 0 C 48.511719 0 97.019531 0 147 0 C 147 8.910156 147 17.820312 147 27 C 98.488281 27 49.980469 27 0 27 C 0 18.089844 0 9.179688 0 0 Z M 0 0 "/>
<path style=" stroke:none;fill-rule:nonzero;fill:rgb(26.666668%,13.725491%,15.294118%);fill-opacity:1;" d="M 73.488281 3.648438 C 73.578125 3.648438 73.664062 3.648438 73.753906 3.648438 C 75.535156 3.648438 77.292969 3.675781 79.050781 3.730469 C 79.234375 3.734375 79.234375 3.734375 79.421875 3.742188 C 85.390625 3.933594 91.179688 4.4375 95.617188 5.199219 C 95.820312 5.234375 96.027344 5.265625 96.234375 5.300781 C 97.023438 5.425781 97.730469 5.5625 98.382812 5.714844 C 98.566406 5.753906 98.761719 5.796875 98.960938 5.835938 C 101.820312 6.421875 103.84375 7.175781 105.152344 7.921875 C 105.179688 7.933594 105.207031 7.949219 105.234375 7.964844 C 106.847656 8.878906 106.957031 9.914062 106.035156 10.855469 C 106.007812 10.882812 106.007812 10.882812 105.980469 10.914062 C 104.539062 12.421875 99.339844 13.808594 92.609375 14.6875 C 92.066406 14.757812 91.507812 14.824219 90.945312 14.886719 C 90.855469 14.894531 90.769531 14.90625 90.679688 14.914062 C 87.675781 15.253906 84.414062 15.5 80.980469 15.644531 C 80.867188 15.648438 80.757812 15.652344 80.640625 15.65625 C 79.734375 15.695312 78.832031 15.726562 77.910156 15.75 C 77.832031 15.75 77.753906 15.753906 77.675781 15.753906 C 71.578125 15.894531 65.488281 15.710938 59.878906 15.265625 C 59.792969 15.257812 59.707031 15.25 59.621094 15.242188 C 56.582031 15 53.824219 14.640625 51.351562 14.238281 C 51.300781 14.230469 51.246094 14.222656 51.191406 14.210938 C 49.929688 14.007812 48.761719 13.78125 47.726562 13.535156 C 47.679688 13.523438 47.632812 13.515625 47.582031 13.503906 C 46.78125 13.316406 46.050781 13.125 45.375 12.925781 C 45.332031 12.910156 45.292969 12.898438 45.25 12.886719 C 41.210938 11.6875 39.578125 10.214844 40.769531 8.820312 C 40.789062 8.796875 40.808594 8.773438 40.828125 8.75 C 41.121094 8.414062 41.546875 8.082031 42.140625 7.757812 C 42.167969 7.742188 42.199219 7.726562 42.230469 7.707031 C 43.128906 7.222656 44.457031 6.738281 46.058594 6.316406 C 46.132812 6.296875 46.207031 6.277344 46.28125 6.257812 C 47.109375 6.039062 48.023438 5.832031 49.003906 5.636719 C 49.183594 5.601562 49.359375 5.5625 49.53125 5.527344 C 50.183594 5.390625 50.894531 5.265625 51.644531 5.148438 C 51.734375 5.132812 51.824219 5.121094 51.914062 5.105469 C 53.382812 4.871094 54.996094 4.671875 56.644531 4.480469 C 56.707031 4.476562 56.769531 4.46875 56.835938 4.460938 C 59.390625 4.167969 62.410156 3.953125 65.328125 3.824219 C 65.570312 3.816406 65.8125 3.804688 66.058594 3.792969 C 68.503906 3.683594 70.976562 3.648438 73.488281 3.648438 Z M 73.488281 3.648438 "/>
<path style=" stroke:none;fill-rule:nonzero;fill:rgb(26.666668%,13.725491%,15.294118%);fill-opacity:1;" d="M 77.847656 6.636719 C 77.957031 6.636719 78.070312 6.632812 78.183594 6.632812 C 78.808594 6.632812 79.203125 6.636719 79.675781 6.714844 C 80.046875 6.785156 80.085938 6.839844 80.074219 6.933594 C 80.074219 6.964844 80.074219 6.964844 80.070312 6.992188 C 80.070312 7.007812 80.066406 7.023438 80.066406 7.039062 C 80.125 7.039062 80.1875 7.039062 80.25 7.039062 C 80.886719 7.035156 81.523438 7.035156 82.160156 7.035156 C 82.394531 7.035156 82.632812 7.03125 82.871094 7.03125 C 83.210938 7.03125 83.550781 7.03125 83.894531 7.03125 C 84 7.03125 84.105469 7.03125 84.214844 7.03125 C 84.953125 7.03125 85.472656 7.050781 86.046875 7.140625 C 86.089844 7.152344 86.132812 7.160156 86.179688 7.171875 C 86.246094 7.1875 86.246094 7.1875 86.316406 7.203125 C 86.609375 7.285156 86.65625 7.355469 86.664062 7.457031 C 86.664062 7.46875 86.664062 7.480469 86.667969 7.492188 C 86.667969 7.535156 86.671875 7.578125 86.671875 7.617188 C 86.675781 7.648438 86.675781 7.675781 86.679688 7.703125 C 86.683594 7.78125 86.6875 7.855469 86.691406 7.933594 C 86.695312 8.011719 86.699219 8.089844 86.703125 8.164062 C 86.714844 8.316406 86.722656 8.46875 86.730469 8.621094 C 86.777344 8.613281 86.824219 8.609375 86.871094 8.601562 C 87.085938 8.566406 87.304688 8.535156 87.519531 8.503906 C 87.59375 8.492188 87.667969 8.480469 87.742188 8.46875 C 88.191406 8.402344 88.640625 8.335938 89.101562 8.269531 C 89.566406 8.203125 90.019531 8.132812 90.464844 8.0625 C 91.777344 7.851562 92.824219 7.699219 94.605469 7.699219 C 94.707031 7.699219 94.808594 7.699219 94.914062 7.699219 C 95.457031 7.699219 95.867188 7.699219 96.335938 7.757812 C 96.800781 7.851562 96.839844 7.914062 96.839844 8.039062 C 96.839844 8.054688 96.839844 8.070312 96.839844 8.085938 C 96.839844 8.140625 96.839844 8.195312 96.839844 8.25 C 96.84375 8.289062 96.84375 8.328125 96.84375 8.367188 C 96.84375 8.472656 96.847656 8.578125 96.847656 8.683594 C 96.847656 8.75 96.847656 8.816406 96.847656 8.882812 C 96.851562 9.089844 96.851562 9.292969 96.851562 9.5 C 96.855469 9.738281 96.855469 9.980469 96.859375 10.21875 C 96.863281 10.402344 96.863281 10.585938 96.863281 10.769531 C 96.863281 10.878906 96.867188 10.988281 96.867188 11.101562 C 96.871094 11.203125 96.871094 11.308594 96.871094 11.410156 C 96.871094 11.449219 96.871094 11.488281 96.871094 11.523438 C 96.875 11.578125 96.875 11.628906 96.871094 11.679688 C 96.875 11.703125 96.875 11.703125 96.875 11.726562 C 96.871094 11.820312 96.777344 11.875 96.433594 11.953125 C 95.894531 12.027344 95.277344 12.015625 94.636719 12.011719 C 94.53125 12.011719 94.421875 12.011719 94.3125 12.011719 C 93.5 12.011719 92.738281 11.996094 92.09375 11.898438 C 92.023438 11.886719 91.949219 11.875 91.875 11.863281 C 91.792969 11.851562 91.714844 11.839844 91.628906 11.824219 C 91.53125 11.808594 91.429688 11.796875 91.328125 11.78125 C 91.109375 11.746094 90.890625 11.710938 90.671875 11.675781 C 90.3125 11.621094 89.945312 11.566406 89.578125 11.511719 C 89.34375 11.476562 89.109375 11.441406 88.875 11.40625 C 88.804688 11.394531 88.730469 11.382812 88.65625 11.371094 C 88.515625 11.351562 88.375 11.328125 88.234375 11.308594 C 87.859375 11.25 87.476562 11.195312 87.09375 11.136719 C 87.007812 11.125 86.921875 11.113281 86.832031 11.097656 C 86.765625 11.089844 86.699219 11.078125 86.632812 11.070312 C 86.632812 11.085938 86.632812 11.101562 86.636719 11.117188 C 86.644531 11.269531 86.652344 11.421875 86.65625 11.574219 C 86.660156 11.652344 86.664062 11.730469 86.667969 11.808594 C 86.675781 11.886719 86.675781 11.960938 86.679688 12.039062 C 86.679688 12.066406 86.679688 12.09375 86.683594 12.125 C 86.699219 12.296875 86.675781 12.4375 86 12.574219 C 85.359375 12.683594 84.65625 12.675781 83.835938 12.675781 C 83.730469 12.675781 83.621094 12.675781 83.507812 12.675781 C 83.167969 12.675781 82.824219 12.675781 82.480469 12.675781 C 82.246094 12.675781 82.011719 12.675781 81.777344 12.671875 C 81.207031 12.671875 80.636719 12.671875 80.066406 12.671875 C 80.066406 12.6875 80.070312 12.699219 80.070312 12.714844 C 80.070312 12.730469 80.070312 12.75 80.074219 12.765625 C 80.074219 12.792969 80.074219 12.792969 80.078125 12.820312 C 80.058594 12.910156 79.863281 12.960938 79.535156 13.023438 C 79.101562 13.089844 78.621094 13.082031 78.085938 13.078125 C 77.976562 13.082031 77.863281 13.082031 77.75 13.082031 C 77.390625 13.082031 77.027344 13.082031 76.664062 13.082031 C 76.410156 13.082031 76.160156 13.082031 75.90625 13.082031 C 75.378906 13.082031 74.847656 13.082031 74.320312 13.082031 C 73.710938 13.082031 73.101562 13.082031 72.488281 13.082031 C 71.902344 13.082031 71.3125 13.082031 70.726562 13.082031 C 70.476562 13.082031 70.226562 13.082031 69.976562 13.082031 C 69.625 13.082031 69.277344 13.082031 68.929688 13.082031 C 68.824219 13.082031 68.722656 13.082031 68.617188 13.082031 C 68.03125 13.082031 67.691406 13.066406 67.261719 12.992188 C 66.964844 12.917969 66.910156 12.855469 66.921875 12.765625 C 66.921875 12.746094 66.925781 12.730469 66.925781 12.710938 C 66.929688 12.699219 66.933594 12.6875 66.933594 12.671875 C 66.871094 12.671875 66.808594 12.671875 66.742188 12.671875 C 65.207031 12.671875 63.675781 12.675781 62.140625 12.675781 C 61.398438 12.675781 60.65625 12.675781 59.914062 12.675781 C 59.265625 12.679688 58.621094 12.679688 57.972656 12.679688 C 57.628906 12.679688 57.289062 12.679688 56.945312 12.679688 C 56.5625 12.679688 56.179688 12.679688 55.796875 12.679688 C 55.683594 12.679688 55.570312 12.679688 55.453125 12.679688 C 54.65625 12.679688 54.253906 12.65625 53.636719 12.558594 C 53 12.421875 52.960938 12.304688 52.972656 12.125 C 52.972656 12.101562 52.972656 12.078125 52.972656 12.054688 C 52.972656 11.988281 52.976562 11.925781 52.976562 11.859375 C 52.980469 11.792969 52.980469 11.726562 52.980469 11.65625 C 52.984375 11.53125 52.984375 11.402344 52.988281 11.273438 C 52.996094 11.128906 52.996094 10.980469 53 10.835938 C 53.003906 10.535156 53.007812 10.234375 53.019531 9.9375 C 52.878906 9.925781 52.878906 9.925781 52.734375 9.917969 C 51.832031 9.863281 50.90625 9.777344 50.371094 9.628906 C 50.179688 9.558594 50.148438 9.496094 50.144531 9.417969 C 50.144531 9.40625 50.140625 9.394531 50.140625 9.378906 C 50.136719 9.339844 50.136719 9.300781 50.136719 9.261719 C 50.136719 9.246094 50.136719 9.234375 50.132812 9.21875 C 50.132812 9.148438 50.128906 9.074219 50.128906 9.003906 C 50.128906 8.929688 50.125 8.855469 50.117188 8.78125 C 50.113281 8.722656 50.113281 8.667969 50.113281 8.609375 C 50.113281 8.582031 50.109375 8.554688 50.109375 8.527344 C 50.09375 8.367188 50.128906 8.242188 50.765625 8.117188 C 50.996094 8.082031 50.996094 8.082031 51.222656 8.0625 C 51.304688 8.050781 51.390625 8.042969 51.476562 8.035156 C 51.5625 8.027344 51.652344 8.019531 51.742188 8.011719 C 51.890625 7.996094 51.890625 7.996094 52.039062 7.980469 C 52.789062 7.902344 52.789062 7.902344 53.019531 7.902344 C 53.015625 7.886719 53.011719 7.871094 53.011719 7.855469 C 53 7.792969 52.996094 7.734375 52.992188 7.671875 C 52.988281 7.648438 52.984375 7.621094 52.980469 7.597656 C 52.957031 7.4375 52.964844 7.296875 53.507812 7.164062 C 54.121094 7.058594 54.59375 7.035156 55.425781 7.035156 C 55.511719 7.035156 55.597656 7.035156 55.6875 7.035156 C 55.980469 7.035156 56.269531 7.035156 56.5625 7.035156 C 56.769531 7.035156 56.980469 7.035156 57.1875 7.035156 C 57.753906 7.035156 58.324219 7.035156 58.890625 7.035156 C 59.484375 7.035156 60.074219 7.035156 60.667969 7.035156 C 61.789062 7.035156 62.914062 7.035156 64.035156 7.035156 C 65.3125 7.035156 66.589844 7.035156 67.867188 7.035156 C 70.496094 7.039062 73.125 7.039062 75.753906 7.039062 C 75.75 7.019531 75.75 7.003906 75.746094 6.984375 C 75.746094 6.960938 75.742188 6.941406 75.738281 6.917969 C 75.738281 6.894531 75.734375 6.871094 75.734375 6.847656 C 75.753906 6.789062 75.773438 6.761719 75.972656 6.71875 C 76.578125 6.628906 77.09375 6.636719 77.847656 6.636719 Z M 77.847656 6.636719 "/>
<path style=" stroke:none;fill-rule:nonzero;fill:rgb(81.568629%,18.039216%,25.490198%);fill-opacity:1;" d="M 77.847656 6.636719 C 77.957031 6.636719 78.070312 6.632812 78.183594 6.632812 C 78.808594 6.632812 79.203125 6.636719 79.675781 6.714844 C 80.046875 6.785156 80.085938 6.839844 80.074219 6.933594 C 80.074219 6.964844 80.074219 6.964844 80.070312 6.992188 C 80.070312 7.007812 80.066406 7.023438 80.066406 7.039062 C 80.125 7.039062 80.1875 7.039062 80.25 7.039062 C 80.886719 7.035156 81.523438 7.035156 82.160156 7.035156 C 82.394531 7.035156 82.632812 7.03125 82.871094 7.03125 C 83.210938 7.03125 83.550781 7.03125 83.894531 7.03125 C 84 7.03125 84.105469 7.03125 84.214844 7.03125 C 84.953125 7.03125 85.472656 7.050781 86.046875 7.140625 C 86.089844 7.152344 86.132812 7.160156 86.179688 7.171875 C 86.246094 7.1875 86.246094 7.1875 86.316406 7.203125 C 86.609375 7.285156 86.65625 7.355469 86.664062 7.457031 C 86.664062 7.46875 86.664062 7.480469 86.667969 7.492188 C 86.667969 7.535156 86.671875 7.578125 86.671875 7.617188 C 86.675781 7.648438 86.675781 7.675781 86.679688 7.703125 C 86.683594 7.78125 86.6875 7.855469 86.691406 7.933594 C 86.695312 8.011719 86.699219 8.089844 86.703125 8.164062 C 86.714844 8.316406 86.722656 8.46875 86.730469 8.621094 C 86.777344 8.613281 86.824219 8.609375 86.871094 8.601562 C 87.085938 8.566406 87.304688 8.535156 87.519531 8.503906 C 87.59375 8.492188 87.667969 8.480469 87.742188 8.46875 C 88.191406 8.402344 88.640625 8.335938 89.101562 8.269531 C 89.566406 8.203125 90.019531 8.132812 90.464844 8.0625 C 91.777344 7.851562 92.824219 7.699219 94.605469 7.699219 C 94.707031 7.699219 94.808594 7.699219 94.914062 7.699219 C 95.457031 7.699219 95.867188 7.699219 96.335938 7.757812 C 96.800781 7.851562 96.839844 7.914062 96.839844 8.039062 C 96.839844 8.054688 96.839844 8.070312 96.839844 8.085938 C 96.839844 8.140625 96.839844 8.195312 96.839844 8.25 C 96.84375 8.289062 96.84375 8.328125 96.84375 8.367188 C 96.84375 8.472656 96.847656 8.578125 96.847656 8.683594 C 96.847656 8.75 96.847656 8.816406 96.847656 8.882812 C 96.851562 9.089844 96.851562 9.292969 96.851562 9.5 C 96.855469 9.738281 96.855469 9.980469 96.859375 10.21875 C 96.863281 10.402344 96.863281 10.585938 96.863281 10.769531 C 96.863281 10.878906 96.867188 10.988281 96.867188 11.101562 C 96.871094 11.203125 96.871094 11.308594 96.871094 11.410156 C 96.871094 11.449219 96.871094 11.488281 96.871094 11.523438 C 96.875 11.578125 96.875 11.628906 96.871094 11.679688 C 96.875 11.703125 96.875 11.703125 96.875 11.726562 C 96.871094 11.820312 96.777344 11.875 96.433594 11.953125 C 95.894531 12.027344 95.277344 12.015625 94.636719 12.011719 C 94.53125 12.011719 94.421875 12.011719 94.3125 12.011719 C 93.5 12.011719 92.738281 11.996094 92.09375 11.898438 C 92.023438 11.886719 91.949219 11.875 91.875 11.863281 C 91.792969 11.851562 91.714844 11.839844 91.628906 11.824219 C 91.53125 11.808594 91.429688 11.796875 91.328125 11.78125 C 91.109375 11.746094 90.890625 11.710938 90.671875 11.675781 C 90.3125 11.621094 89.945312 11.566406 89.578125 11.511719 C 89.34375 11.476562 89.109375 11.441406 88.875 11.40625 C 88.804688 11.394531 88.730469 11.382812 88.65625 11.371094 C 88.515625 11.351562 88.375 11.328125 88.234375 11.308594 C 87.859375 11.25 87.476562 11.195312 87.09375 11.136719 C 87.007812 11.125 86.921875 11.113281 86.832031 11.097656 C 86.765625 11.089844 86.699219 11.078125 86.632812 11.070312 C 86.632812 11.085938 86.632812 11.101562 86.636719 11.117188 C 86.644531 11.269531 86.652344 11.421875 86.65625 11.574219 C 86.660156 11.652344 86.664062 11.730469 86.667969 11.808594 C 86.675781 11.886719 86.675781 11.960938 86.679688 12.039062 C 86.679688 12.066406 86.679688 12.09375 86.683594 12.125 C 86.699219 12.296875 86.675781 12.4375 86 12.574219 C 85.359375 12.683594 84.65625 12.675781 83.835938 12.675781 C 83.730469 12.675781 83.621094 12.675781 83.507812 12.675781 C 83.167969 12.675781 82.824219 12.675781 82.480469 12.675781 C 82.246094 12.675781 82.011719 12.675781 81.777344 12.671875 C 81.207031 12.671875 80.636719 12.671875 80.066406 12.671875 C 80.066406 12.6875 80.070312 12.699219 80.070312 12.714844 C 80.070312 12.730469 80.070312 12.75 80.074219 12.765625 C 80.074219 12.792969 80.074219 12.792969 80.078125 12.820312 C 80.058594 12.910156 79.863281 12.960938 79.535156 13.023438 C 79.101562 13.089844 78.621094 13.082031 78.085938 13.078125 C 77.976562 13.082031 77.863281 13.082031 77.75 13.082031 C 77.390625 13.082031 77.027344 13.082031 76.664062 13.082031 C 76.410156 13.082031 76.160156 13.082031 75.90625 13.082031 C 75.378906 13.082031 74.847656 13.082031 74.320312 13.082031 C 73.710938 13.082031 73.101562 13.082031 72.488281 13.082031 C 71.902344 13.082031 71.3125 13.082031 70.726562 13.082031 C 70.476562 13.082031 70.226562 13.082031 69.976562 13.082031 C 69.625 13.082031 69.277344 13.082031 68.929688 13.082031 C 68.824219 13.082031 68.722656 13.082031 68.617188 13.082031 C 68.03125 13.082031 67.691406 13.066406 67.261719 12.992188 C 66.964844 12.917969 66.910156 12.855469 66.921875 12.765625 C 66.921875 12.746094 66.925781 12.730469 66.925781 12.710938 C 66.929688 12.699219 66.933594 12.6875 66.933594 12.671875 C 66.871094 12.671875 66.808594 12.671875 66.742188 12.671875 C 65.207031 12.671875 63.675781 12.675781 62.140625 12.675781 C 61.398438 12.675781 60.65625 12.675781 59.914062 12.675781 C 59.265625 12.679688 58.621094 12.679688 57.972656 12.679688 C 57.628906 12.679688 57.289062 12.679688 56.945312 12.679688 C 56.5625 12.679688 56.179688 12.679688 55.796875 12.679688 C 55.683594 12.679688 55.570312 12.679688 55.453125 12.679688 C 54.65625 12.679688 54.253906 12.65625 53.636719 12.558594 C 53 12.421875 52.960938 12.304688 52.972656 12.125 C 52.972656 12.101562 52.972656 12.078125 52.972656 12.054688 C 52.972656 11.988281 52.976562 11.925781 52.976562 11.859375 C 52.980469 11.792969 52.980469 11.726562 52.980469 11.65625 C 52.984375 11.53125 52.984375 11.402344 52.988281 11.273438 C 52.996094 11.128906 52.996094 10.980469 53 10.835938 C 53.003906 10.535156 53.007812 10.234375 53.019531 9.9375 C 52.878906 9.925781 52.878906 9.925781 52.734375 9.917969 C 51.832031 9.863281 50.90625 9.777344 50.371094 9.628906 C 50.179688 9.558594 50.148438 9.496094 50.144531 9.417969 C 50.144531 9.40625 50.140625 9.394531 50.140625 9.378906 C 50.136719 9.339844 50.136719 9.300781 50.136719 9.261719 C 50.136719 9.246094 50.136719 9.234375 50.132812 9.21875 C 50.132812 9.148438 50.128906 9.074219 50.128906 9.003906 C 50.128906 8.929688 50.125 8.855469 50.117188 8.78125 C 50.113281 8.722656 50.113281 8.667969 50.113281 8.609375 C 50.113281 8.582031 50.109375 8.554688 50.109375 8.527344 C 50.09375 8.367188 50.128906 8.242188 50.765625 8.117188 C 50.996094 8.082031 50.996094 8.082031 51.222656 8.0625 C 51.304688 8.050781 51.390625 8.042969 51.476562 8.035156 C 51.5625 8.027344 51.652344 8.019531 51.742188 8.011719 C 51.890625 7.996094 51.890625 7.996094 52.039062 7.980469 C 52.789062 7.902344 52.789062 7.902344 53.019531 7.902344 C 53.015625 7.886719 53.011719 7.871094 53.011719 7.855469 C 53 7.792969 52.996094 7.734375 52.992188 7.671875 C 52.988281 7.648438 52.984375 7.621094 52.980469 7.597656 C 52.957031 7.4375 52.964844 7.296875 53.507812 7.164062 C 54.121094 7.058594 54.59375 7.035156 55.425781 7.035156 C 55.511719 7.035156 55.597656 7.035156 55.6875 7.035156 C 55.980469 7.035156 56.269531 7.035156 56.5625 7.035156 C 56.769531 7.035156 56.980469 7.035156 57.1875 7.035156 C 57.753906 7.035156 58.324219 7.035156 58.890625 7.035156 C 59.484375 7.035156 60.074219 7.035156 60.667969 7.035156 C 61.789062 7.035156 62.914062 7.035156 64.035156 7.035156 C 65.3125 7.035156 66.589844 7.035156 67.867188 7.035156 C 70.496094 7.039062 73.125 7.039062 75.753906 7.039062 C 75.75 7.019531 75.75 7.003906 75.746094 6.984375 C 75.746094 6.960938 75.742188 6.941406 75.738281 6.917969 C 75.738281 6.894531 75.734375 6.871094 75.734375 6.847656 C 75.753906 6.789062 75.773438 6.761719 75.972656 6.71875 C 76.578125 6.628906 77.09375 6.636719 77.847656 6.636719 Z M 54.488281 7.378906 C 54.449219 7.429688 54.4375 7.476562 54.4375 7.527344 C 54.4375 7.539062 54.4375 7.554688 54.4375 7.570312 C 54.433594 7.613281 54.433594 7.660156 54.433594 7.703125 C 54.433594 7.75 54.429688 7.792969 54.429688 7.839844 C 54.425781 7.867188 54.425781 7.894531 54.429688 7.921875 C 54.425781 7.976562 54.410156 8.019531 54.273438 8.070312 C 54.058594 8.105469 53.851562 8.125 53.585938 8.148438 C 53.433594 8.160156 53.433594 8.160156 53.285156 8.175781 C 53.179688 8.183594 53.074219 8.191406 52.96875 8.199219 C 52.761719 8.21875 52.558594 8.234375 52.351562 8.25 C 52.21875 8.261719 52.21875 8.261719 52.078125 8.273438 C 51.839844 8.296875 51.710938 8.3125 51.546875 8.351562 C 51.503906 8.402344 51.503906 8.402344 51.507812 8.460938 C 51.507812 8.484375 51.507812 8.507812 51.503906 8.527344 C 51.503906 8.554688 51.503906 8.578125 51.503906 8.601562 C 51.503906 8.628906 51.503906 8.652344 51.503906 8.679688 C 51.503906 8.730469 51.503906 8.785156 51.503906 8.835938 C 51.503906 8.902344 51.503906 8.972656 51.5 9.039062 C 51.5 9.089844 51.5 9.144531 51.5 9.195312 C 51.5 9.21875 51.5 9.246094 51.496094 9.269531 C 51.496094 9.304688 51.496094 9.339844 51.5 9.375 C 51.5 9.394531 51.5 9.414062 51.5 9.433594 C 51.558594 9.5 51.671875 9.519531 51.941406 9.558594 C 52.1875 9.585938 52.1875 9.585938 52.464844 9.605469 C 52.5625 9.613281 52.664062 9.625 52.765625 9.632812 C 52.871094 9.640625 52.972656 9.648438 53.078125 9.65625 C 53.285156 9.675781 53.492188 9.691406 53.695312 9.710938 C 53.832031 9.722656 53.832031 9.722656 53.972656 9.734375 C 54.195312 9.757812 54.195312 9.757812 54.390625 9.808594 C 54.414062 9.855469 54.414062 9.855469 54.414062 9.910156 C 54.417969 9.941406 54.417969 9.941406 54.417969 9.976562 C 54.417969 9.996094 54.417969 10.019531 54.417969 10.042969 C 54.417969 10.070312 54.417969 10.09375 54.421875 10.117188 C 54.421875 10.171875 54.421875 10.222656 54.421875 10.277344 C 54.421875 10.359375 54.425781 10.445312 54.429688 10.527344 C 54.433594 10.703125 54.4375 10.882812 54.4375 11.058594 C 54.441406 11.25 54.445312 11.441406 54.449219 11.632812 C 54.453125 11.71875 54.453125 11.800781 54.457031 11.882812 C 54.457031 11.933594 54.457031 11.988281 54.460938 12.039062 C 54.460938 12.074219 54.460938 12.109375 54.460938 12.144531 C 54.460938 12.175781 54.460938 12.175781 54.460938 12.207031 C 54.460938 12.226562 54.460938 12.246094 54.464844 12.265625 C 54.488281 12.3125 54.539062 12.34375 54.683594 12.382812 C 54.929688 12.40625 55.09375 12.40625 55.371094 12.40625 C 55.472656 12.40625 55.578125 12.40625 55.6875 12.40625 C 55.800781 12.40625 55.917969 12.40625 56.035156 12.40625 C 56.21875 12.40625 56.21875 12.40625 56.40625 12.40625 C 56.746094 12.40625 57.085938 12.40625 57.425781 12.40625 C 57.789062 12.40625 58.15625 12.40625 58.519531 12.40625 C 59.40625 12.40625 60.289062 12.40625 61.171875 12.40625 C 61.589844 12.40625 62.003906 12.40625 62.421875 12.40625 C 63.804688 12.40625 65.183594 12.40625 66.566406 12.40625 C 66.925781 12.40625 67.285156 12.40625 67.644531 12.40625 C 67.734375 12.40625 67.820312 12.40625 67.914062 12.40625 C 69.359375 12.40625 70.804688 12.40625 72.25 12.410156 C 73.734375 12.410156 75.214844 12.410156 76.699219 12.410156 C 77.53125 12.410156 78.367188 12.410156 79.199219 12.410156 C 79.910156 12.410156 80.617188 12.410156 81.328125 12.410156 C 81.6875 12.410156 82.050781 12.410156 82.414062 12.410156 C 82.804688 12.410156 83.199219 12.410156 83.589844 12.410156 C 83.703125 12.410156 83.820312 12.410156 83.9375 12.410156 C 84.09375 12.410156 84.09375 12.410156 84.253906 12.410156 C 84.347656 12.410156 84.4375 12.410156 84.53125 12.410156 C 84.851562 12.398438 84.964844 12.378906 85.160156 12.328125 C 85.21875 12.289062 85.21875 12.289062 85.210938 12.242188 C 85.210938 12.21875 85.210938 12.21875 85.214844 12.191406 C 85.214844 12.164062 85.214844 12.164062 85.210938 12.132812 C 85.210938 12.113281 85.214844 12.09375 85.214844 12.074219 C 85.214844 12.003906 85.214844 11.9375 85.210938 11.867188 C 85.214844 11.820312 85.214844 11.769531 85.214844 11.722656 C 85.214844 11.605469 85.214844 11.484375 85.214844 11.367188 C 85.214844 11.269531 85.214844 11.175781 85.214844 11.078125 C 85.214844 11.058594 85.214844 11.058594 85.214844 11.035156 C 85.214844 11.007812 85.214844 10.980469 85.214844 10.953125 C 85.214844 10.691406 85.214844 10.429688 85.210938 10.167969 C 85.210938 9.945312 85.210938 9.71875 85.214844 9.496094 C 85.214844 9.234375 85.214844 8.976562 85.214844 8.714844 C 85.214844 8.6875 85.214844 8.660156 85.214844 8.632812 C 85.214844 8.617188 85.214844 8.605469 85.214844 8.589844 C 85.214844 8.496094 85.214844 8.398438 85.214844 8.300781 C 85.214844 8.183594 85.214844 8.066406 85.214844 7.949219 C 85.214844 7.890625 85.214844 7.832031 85.214844 7.769531 C 85.214844 7.707031 85.214844 7.640625 85.210938 7.574219 C 85.210938 7.558594 85.214844 7.539062 85.214844 7.519531 C 85.214844 7.5 85.210938 7.484375 85.210938 7.464844 C 85.210938 7.449219 85.210938 7.4375 85.210938 7.421875 C 85.140625 7.363281 85.019531 7.34375 84.769531 7.308594 C 84.527344 7.296875 84.527344 7.296875 84.257812 7.300781 C 84.097656 7.296875 84.097656 7.296875 83.9375 7.296875 C 83.824219 7.296875 83.710938 7.296875 83.589844 7.300781 C 83.46875 7.296875 83.347656 7.296875 83.222656 7.296875 C 82.882812 7.296875 82.542969 7.296875 82.203125 7.296875 C 81.835938 7.296875 81.472656 7.296875 81.105469 7.296875 C 80.390625 7.296875 79.671875 7.296875 78.957031 7.296875 C 78.375 7.296875 77.792969 7.296875 77.210938 7.296875 C 77.128906 7.296875 77.042969 7.296875 76.960938 7.296875 C 76.792969 7.296875 76.625 7.296875 76.453125 7.296875 C 74.878906 7.296875 73.300781 7.296875 71.722656 7.296875 C 70.367188 7.300781 69.011719 7.300781 67.660156 7.296875 C 66.085938 7.296875 64.515625 7.296875 62.941406 7.296875 C 62.773438 7.296875 62.605469 7.296875 62.441406 7.296875 C 62.355469 7.296875 62.273438 7.296875 62.191406 7.296875 C 61.609375 7.296875 61.027344 7.296875 60.445312 7.296875 C 59.738281 7.296875 59.027344 7.296875 58.320312 7.296875 C 57.957031 7.296875 57.597656 7.296875 57.234375 7.296875 C 56.84375 7.296875 56.449219 7.296875 56.058594 7.300781 C 55.945312 7.296875 55.828125 7.296875 55.710938 7.296875 C 55.605469 7.296875 55.5 7.296875 55.394531 7.300781 C 55.257812 7.300781 55.257812 7.300781 55.121094 7.300781 C 54.800781 7.3125 54.683594 7.332031 54.488281 7.378906 Z M 54.488281 7.378906 "/>
<path style=" stroke:none;fill-rule:nonzero;fill:rgb(27.058825%,13.725491%,15.294118%);fill-opacity:1;" d="M 95.453125 7.972656 C 95.453125 9.214844 95.453125 10.457031 95.453125 11.734375 C 93.3125 11.734375 93.3125 11.734375 92.308594 11.574219 C 91.871094 11.503906 91.421875 11.433594 90.960938 11.371094 C 90.265625 11.269531 89.578125 11.167969 88.894531 11.066406 C 88.542969 11.011719 88.191406 10.960938 87.839844 10.90625 C 87.773438 10.898438 87.710938 10.886719 87.644531 10.878906 C 87.582031 10.867188 87.519531 10.859375 87.457031 10.851562 C 87.40625 10.84375 87.351562 10.835938 87.296875 10.824219 C 87.117188 10.796875 87.117188 10.796875 86.871094 10.773438 C 86.519531 10.707031 86.558594 10.652344 86.554688 10.5625 C 86.550781 10.546875 86.550781 10.53125 86.546875 10.511719 C 86.542969 10.457031 86.539062 10.402344 86.535156 10.347656 C 86.535156 10.308594 86.53125 10.269531 86.527344 10.230469 C 86.523438 10.148438 86.519531 10.070312 86.519531 9.988281 C 86.515625 9.886719 86.507812 9.78125 86.492188 9.679688 C 86.484375 9.597656 86.484375 9.519531 86.484375 9.441406 C 86.480469 9.402344 86.476562 9.363281 86.472656 9.324219 C 86.425781 9.015625 86.425781 9.015625 86.921875 8.914062 C 87.203125 8.863281 87.5 8.824219 87.820312 8.789062 C 88.132812 8.75 88.417969 8.707031 88.707031 8.664062 C 88.824219 8.648438 88.9375 8.628906 89.054688 8.613281 C 89.527344 8.546875 89.988281 8.476562 90.453125 8.40625 C 93.320312 7.972656 93.320312 7.972656 95.453125 7.972656 Z M 95.453125 7.972656 "/>
<path style=" stroke:none;fill-rule:nonzero;fill:rgb(97.647059%,97.647059%,97.647059%);fill-opacity:1;" d="M 62.621094 18.035156 C 64.304688 18.035156 65.984375 18.035156 67.71875 18.035156 C 68.699219 18.457031 69.675781 18.875 70.652344 19.296875 C 70.699219 19.316406 70.746094 19.335938 70.792969 19.355469 C 71.46875 19.648438 72.140625 19.941406 72.8125 20.230469 C 72.992188 20.183594 73.117188 20.136719 73.246094 20.085938 C 73.292969 20.066406 73.339844 20.046875 73.390625 20.023438 C 73.46875 19.992188 73.46875 19.992188 73.550781 19.960938 C 73.605469 19.9375 73.660156 19.914062 73.71875 19.890625 C 74.628906 19.515625 75.519531 19.140625 76.417969 18.761719 C 76.578125 18.695312 76.738281 18.628906 76.898438 18.5625 C 77.011719 18.511719 77.125 18.464844 77.238281 18.417969 C 77.308594 18.386719 77.378906 18.359375 77.449219 18.328125 C 77.480469 18.316406 77.511719 18.304688 77.542969 18.289062 C 77.75 18.203125 77.972656 18.121094 78.203125 18.035156 C 79.757812 18.035156 81.308594 18.035156 82.90625 18.035156 C 82.90625 18.082031 82.90625 18.132812 82.90625 18.179688 C 82.757812 18.207031 82.609375 18.203125 82.398438 18.203125 C 81.855469 18.214844 81.515625 18.25 81.164062 18.328125 C 80.871094 18.453125 80.933594 18.601562 80.929688 18.738281 C 80.929688 18.765625 80.929688 18.765625 80.929688 18.792969 C 80.925781 18.855469 80.925781 18.917969 80.925781 18.980469 C 80.925781 19.003906 80.925781 19.023438 80.921875 19.046875 C 80.921875 19.160156 80.921875 19.273438 80.917969 19.386719 C 80.917969 19.503906 80.914062 19.621094 80.910156 19.738281 C 80.90625 19.828125 80.90625 19.917969 80.90625 20.007812 C 80.90625 20.050781 80.90625 20.09375 80.902344 20.136719 C 80.902344 20.199219 80.902344 20.257812 80.902344 20.316406 C 80.902344 20.335938 80.898438 20.351562 80.898438 20.371094 C 80.902344 20.496094 81.035156 20.605469 81.339844 20.71875 C 81.8125 20.789062 82.507812 20.792969 83.105469 20.808594 C 83.105469 20.855469 83.105469 20.902344 83.105469 20.953125 C 80.871094 20.953125 78.640625 20.953125 76.34375 20.953125 C 76.34375 20.90625 76.34375 20.855469 76.34375 20.808594 C 76.441406 20.804688 76.542969 20.800781 76.644531 20.800781 C 76.78125 20.796875 76.914062 20.789062 77.046875 20.785156 C 77.113281 20.785156 77.179688 20.78125 77.246094 20.78125 C 77.742188 20.765625 78 20.738281 78.300781 20.664062 C 78.503906 20.546875 78.523438 20.441406 78.519531 20.320312 C 78.519531 20.300781 78.519531 20.285156 78.519531 20.261719 C 78.519531 20.199219 78.519531 20.136719 78.515625 20.074219 C 78.515625 20.027344 78.515625 19.984375 78.515625 19.941406 C 78.515625 19.824219 78.511719 19.707031 78.511719 19.59375 C 78.507812 19.472656 78.507812 19.355469 78.507812 19.238281 C 78.503906 19.003906 78.503906 18.773438 78.496094 18.539062 C 78.152344 18.664062 77.820312 18.789062 77.519531 18.917969 C 77.445312 18.949219 77.371094 18.976562 77.300781 19.007812 C 77.242188 19.03125 77.242188 19.03125 77.183594 19.054688 C 75.925781 19.578125 74.664062 20.097656 73.402344 20.617188 C 73.371094 20.632812 73.335938 20.644531 73.304688 20.660156 C 73.238281 20.6875 73.171875 20.714844 73.105469 20.742188 C 72.90625 20.824219 72.710938 20.90625 72.519531 20.988281 C 72.324219 20.988281 72.132812 20.988281 71.933594 20.988281 C 71.664062 20.894531 71.414062 20.800781 71.222656 20.699219 C 71.117188 20.648438 70.984375 20.601562 70.851562 20.554688 C 70.757812 20.519531 70.679688 20.484375 70.609375 20.449219 C 70.515625 20.398438 70.40625 20.355469 70.277344 20.308594 C 70.046875 20.226562 69.875 20.140625 69.703125 20.054688 C 69.585938 20 69.445312 19.957031 69.285156 19.90625 C 69.203125 19.871094 69.128906 19.835938 69.054688 19.796875 C 68.871094 19.707031 68.671875 19.621094 68.453125 19.535156 C 68.25 19.453125 68.058594 19.371094 67.863281 19.285156 C 67.609375 19.175781 67.347656 19.066406 67.070312 18.957031 C 66.882812 18.878906 66.707031 18.800781 66.527344 18.722656 C 66.492188 18.707031 66.453125 18.691406 66.417969 18.675781 C 66.328125 18.636719 66.238281 18.597656 66.148438 18.558594 C 66.144531 18.808594 66.140625 19.058594 66.140625 19.3125 C 66.140625 19.425781 66.136719 19.542969 66.136719 19.660156 C 66.132812 19.773438 66.132812 19.886719 66.132812 20 C 66.132812 20.039062 66.128906 20.082031 66.128906 20.125 C 66.128906 20.1875 66.128906 20.246094 66.128906 20.308594 C 66.128906 20.324219 66.125 20.34375 66.125 20.359375 C 66.128906 20.488281 66.152344 20.636719 66.640625 20.734375 C 67.171875 20.777344 67.734375 20.796875 68.304688 20.808594 C 68.304688 20.855469 68.304688 20.902344 68.304688 20.953125 C 66.367188 20.953125 64.425781 20.953125 62.425781 20.953125 C 62.425781 20.90625 62.425781 20.855469 62.425781 20.808594 C 62.527344 20.804688 62.625 20.800781 62.730469 20.800781 C 62.863281 20.796875 62.996094 20.789062 63.128906 20.785156 C 63.230469 20.785156 63.230469 20.785156 63.332031 20.78125 C 63.824219 20.765625 64.074219 20.734375 64.386719 20.664062 C 64.546875 20.601562 64.605469 20.554688 64.605469 20.484375 C 64.609375 20.46875 64.609375 20.449219 64.609375 20.433594 C 64.609375 20.414062 64.609375 20.394531 64.605469 20.375 C 64.609375 20.355469 64.609375 20.335938 64.609375 20.3125 C 64.609375 20.246094 64.609375 20.179688 64.609375 20.113281 C 64.609375 20.066406 64.609375 20.023438 64.609375 19.976562 C 64.609375 19.878906 64.609375 19.78125 64.609375 19.683594 C 64.605469 19.570312 64.605469 19.460938 64.609375 19.347656 C 64.609375 19.242188 64.609375 19.132812 64.609375 19.023438 C 64.609375 18.980469 64.609375 18.933594 64.609375 18.886719 C 64.609375 18.824219 64.609375 18.757812 64.605469 18.695312 C 64.609375 18.675781 64.609375 18.65625 64.609375 18.636719 C 64.609375 18.449219 64.609375 18.449219 64.214844 18.28125 C 63.753906 18.222656 63.265625 18.210938 62.71875 18.199219 C 62.6875 18.191406 62.65625 18.1875 62.621094 18.179688 C 62.621094 18.132812 62.621094 18.085938 62.621094 18.035156 Z M 62.621094 18.035156 "/>
<path style=" stroke:none;fill-rule:nonzero;fill:rgb(98.039216%,98.039216%,98.039216%);fill-opacity:1;" d="M 124.851562 17.820312 C 124.882812 18.285156 124.917969 18.746094 124.949219 19.222656 C 125.242188 19.175781 125.53125 19.128906 125.832031 19.078125 C 127.046875 18.941406 128.453125 18.855469 129.886719 18.914062 C 130.851562 18.964844 131.625 19.03125 132.203125 19.1875 C 132.523438 19.296875 132.605469 19.398438 132.609375 19.519531 C 132.613281 19.542969 132.613281 19.566406 132.613281 19.59375 C 132.617188 19.605469 132.617188 19.617188 132.617188 19.628906 C 132.617188 19.667969 132.621094 19.707031 132.621094 19.746094 C 132.628906 19.859375 132.636719 19.96875 132.640625 20.078125 C 132.644531 20.148438 132.648438 20.214844 132.652344 20.285156 C 132.652344 20.308594 132.65625 20.335938 132.65625 20.363281 C 132.65625 20.398438 132.660156 20.433594 132.664062 20.46875 C 132.664062 20.5 132.664062 20.5 132.664062 20.53125 C 132.699219 20.609375 132.769531 20.6875 133.007812 20.75 C 133.257812 20.78125 133.496094 20.785156 133.789062 20.792969 C 133.894531 20.796875 134 20.800781 134.109375 20.800781 C 134.191406 20.804688 134.273438 20.804688 134.359375 20.808594 C 134.359375 20.855469 134.359375 20.902344 134.359375 20.953125 C 132.515625 20.953125 130.671875 20.953125 128.773438 20.953125 C 128.773438 20.90625 128.773438 20.855469 128.773438 20.808594 C 129.226562 20.796875 129.675781 20.785156 130.144531 20.773438 C 130.421875 20.644531 130.480469 20.535156 130.476562 20.394531 C 130.476562 20.375 130.476562 20.355469 130.476562 20.335938 C 130.476562 20.292969 130.476562 20.25 130.476562 20.207031 C 130.476562 20.140625 130.476562 20.078125 130.476562 20.011719 C 130.558594 19.578125 130.558594 19.578125 129.554688 19.207031 C 129.265625 19.167969 129.265625 19.167969 128.96875 19.152344 C 128.90625 19.148438 128.847656 19.144531 128.785156 19.140625 C 127.800781 19.113281 126.933594 19.160156 126.128906 19.265625 C 125.507812 19.363281 125.097656 19.488281 125.019531 19.640625 C 125.007812 19.703125 125.003906 19.769531 125.003906 19.835938 C 125.003906 19.859375 125.003906 19.882812 125.003906 19.90625 C 125.003906 19.957031 125.003906 20.007812 125.003906 20.058594 C 125.003906 20.125 125.003906 20.1875 125 20.253906 C 125 20.300781 125 20.351562 125 20.402344 C 125 20.4375 124.996094 20.472656 124.996094 20.507812 C 124.996094 20.53125 124.996094 20.550781 125 20.574219 C 125 20.59375 125 20.609375 125 20.628906 C 125.0625 20.695312 125.191406 20.726562 125.441406 20.773438 C 125.734375 20.789062 125.734375 20.789062 126.050781 20.796875 C 126.210938 20.800781 126.210938 20.800781 126.371094 20.804688 C 126.453125 20.804688 126.535156 20.804688 126.617188 20.808594 C 126.617188 20.855469 126.617188 20.902344 126.617188 20.953125 C 124.773438 20.953125 122.929688 20.953125 121.03125 20.953125 C 121.03125 20.90625 121.03125 20.855469 121.03125 20.808594 C 121.113281 20.804688 121.191406 20.804688 121.277344 20.800781 C 121.382812 20.796875 121.488281 20.796875 121.601562 20.792969 C 121.707031 20.789062 121.8125 20.785156 121.921875 20.785156 C 122.222656 20.773438 122.222656 20.773438 122.5 20.734375 C 122.671875 20.675781 122.71875 20.621094 122.722656 20.554688 C 122.722656 20.535156 122.722656 20.515625 122.722656 20.5 C 122.722656 20.480469 122.722656 20.460938 122.722656 20.4375 C 122.722656 20.417969 122.722656 20.398438 122.722656 20.375 C 122.722656 20.304688 122.722656 20.238281 122.722656 20.167969 C 122.722656 20.117188 122.722656 20.070312 122.722656 20.023438 C 122.722656 19.921875 122.722656 19.820312 122.722656 19.71875 C 122.71875 19.601562 122.722656 19.484375 122.722656 19.367188 C 122.722656 19.265625 122.722656 19.164062 122.722656 19.0625 C 122.722656 19.003906 122.722656 18.945312 122.722656 18.882812 C 122.777344 18.519531 122.777344 18.519531 122.5 18.160156 C 122.179688 18.121094 121.976562 18.117188 121.601562 18.105469 C 121.441406 18.101562 121.441406 18.101562 121.277344 18.097656 C 121.15625 18.09375 121.15625 18.09375 121.03125 18.089844 C 121.03125 18.042969 121.03125 17.996094 121.03125 17.945312 C 121.480469 17.929688 121.929688 17.910156 122.378906 17.890625 C 122.53125 17.886719 122.683594 17.878906 122.839844 17.875 C 123.058594 17.863281 123.277344 17.855469 123.5 17.847656 C 123.566406 17.84375 123.632812 17.84375 123.703125 17.839844 C 124.105469 17.824219 124.433594 17.820312 124.851562 17.820312 Z M 124.851562 17.820312 "/>
<path style=" stroke:none;fill-rule:nonzero;fill:rgb(97.254902%,97.254902%,97.254902%);fill-opacity:1;" d="M 25.96875 18.253906 C 26.097656 18.179688 26.230469 18.109375 26.363281 18.035156 C 26.589844 18.035156 26.816406 18.035156 27.046875 18.035156 C 27.167969 18.332031 27.28125 18.621094 27.242188 18.917969 C 26.953125 18.917969 26.660156 18.917969 26.363281 18.917969 C 26.339844 18.902344 26.3125 18.886719 26.289062 18.871094 C 25.894531 18.640625 25.265625 18.453125 24.09375 18.332031 C 22.671875 18.207031 21.199219 18.175781 19.699219 18.269531 C 18.507812 18.359375 17.578125 18.539062 17.066406 18.753906 C 16.613281 18.960938 16.421875 19.164062 16.367188 19.386719 C 16.363281 19.398438 16.359375 19.414062 16.355469 19.425781 C 16.292969 19.683594 16.394531 19.960938 16.953125 20.195312 C 16.992188 20.214844 17.03125 20.230469 17.074219 20.246094 C 17.566406 20.445312 18.289062 20.613281 19.402344 20.699219 C 20.152344 20.746094 20.851562 20.765625 21.640625 20.761719 C 21.792969 20.761719 21.792969 20.761719 21.949219 20.761719 C 23.3125 20.757812 24.339844 20.679688 25.296875 20.5 C 25.855469 20.378906 26.160156 20.25 26.460938 20.105469 C 26.523438 20.074219 26.589844 20.046875 26.65625 20.015625 C 26.980469 20.015625 27.304688 20.015625 27.636719 20.015625 C 27.636719 20.324219 27.636719 20.632812 27.636719 20.953125 C 27.34375 20.953125 27.054688 20.953125 26.753906 20.953125 C 26.59375 20.863281 26.429688 20.773438 26.265625 20.683594 C 26.128906 20.699219 25.992188 20.71875 25.855469 20.738281 C 23.917969 20.988281 21.539062 21.042969 19.230469 20.976562 C 17.699219 20.917969 16.453125 20.777344 15.386719 20.574219 C 15.328125 20.5625 15.269531 20.554688 15.210938 20.542969 C 14.515625 20.40625 13.957031 20.214844 13.71875 20.035156 C 13.679688 20.007812 13.679688 20.007812 13.636719 19.980469 C 13.015625 19.511719 13.4375 19.023438 14.792969 18.613281 C 15.917969 18.308594 17.535156 18.109375 19.460938 18.019531 C 21.742188 17.941406 24.03125 18.015625 25.96875 18.253906 Z M 25.96875 18.253906 "/>
<path style=" stroke:none;fill-rule:nonzero;fill:rgb(97.647059%,97.647059%,97.647059%);fill-opacity:1;" d="M 92.414062 19.042969 C 93.203125 19.191406 93.242188 19.339844 93.238281 19.535156 C 93.238281 19.578125 93.238281 19.617188 93.242188 19.65625 C 93.246094 19.742188 93.246094 19.828125 93.246094 19.914062 C 93.25 20.015625 93.25 20.117188 93.253906 20.214844 C 93.257812 20.253906 93.253906 20.292969 93.253906 20.332031 C 93.257812 20.464844 93.304688 20.578125 93.589844 20.699219 C 93.621094 20.71875 93.65625 20.734375 93.6875 20.753906 C 94.234375 20.761719 94.597656 20.761719 95.058594 20.699219 C 95.125 20.699219 95.1875 20.699219 95.257812 20.699219 C 95.320312 20.734375 95.386719 20.769531 95.453125 20.808594 C 94.761719 20.929688 94.15625 20.992188 93.1875 20.996094 C 92.605469 20.992188 92.265625 20.988281 91.824219 20.914062 C 91.429688 20.820312 91.273438 20.730469 91.238281 20.609375 C 91.195312 20.621094 91.15625 20.632812 91.113281 20.640625 C 90.429688 20.808594 89.679688 20.9375 88.539062 20.980469 C 87.605469 21.003906 86.667969 21.007812 85.847656 20.914062 C 85.289062 20.835938 84.914062 20.746094 84.820312 20.613281 C 84.785156 20.433594 84.945312 20.320312 85.621094 20.179688 C 86.578125 20.011719 87.925781 19.914062 89.128906 19.816406 C 89.355469 19.800781 89.582031 19.78125 89.808594 19.761719 C 89.953125 19.75 90.097656 19.738281 90.246094 19.726562 C 90.3125 19.722656 90.378906 19.71875 90.449219 19.710938 C 90.921875 19.675781 90.921875 19.675781 91.140625 19.675781 C 91.117188 19.617188 91.089844 19.558594 91.058594 19.5 C 91.054688 19.484375 91.046875 19.46875 91.039062 19.453125 C 90.980469 19.335938 90.902344 19.230469 90.410156 19.144531 C 89.941406 19.089844 89.65625 19.074219 89.082031 19.074219 C 88.902344 19.074219 88.902344 19.074219 88.71875 19.074219 C 88.417969 19.078125 88.253906 19.085938 88.003906 19.117188 C 87.800781 19.167969 87.683594 19.21875 87.570312 19.277344 C 87.425781 19.351562 87.234375 19.417969 86.925781 19.476562 C 86.753906 19.480469 86.578125 19.480469 86.40625 19.480469 C 86.3125 19.480469 86.214844 19.480469 86.117188 19.480469 C 85.808594 19.476562 85.679688 19.460938 85.457031 19.421875 C 85.296875 19.335938 85.25 19.238281 85.4375 19.152344 C 85.890625 19.019531 86.675781 18.96875 87.449219 18.929688 C 89.03125 18.863281 91.070312 18.859375 92.414062 19.042969 Z M 92.414062 19.042969 "/>
<path style=" stroke:none;fill-rule:nonzero;fill:rgb(97.647059%,97.647059%,97.647059%);fill-opacity:1;" d="M 39.886719 18.898438 C 39.949219 19.007812 40.015625 19.113281 40.082031 19.222656 C 40.289062 19.226562 40.289062 19.226562 40.433594 19.199219 C 40.5 19.183594 40.566406 19.171875 40.632812 19.160156 C 41.699219 18.984375 43.050781 18.890625 44.480469 18.894531 C 45.472656 18.910156 46.394531 18.964844 47.125 19.09375 C 47.839844 19.253906 47.867188 19.449219 47.863281 19.648438 C 47.863281 19.6875 47.863281 19.726562 47.867188 19.765625 C 47.871094 19.867188 47.871094 19.964844 47.875 20.0625 C 47.875 20.148438 47.878906 20.230469 47.878906 20.316406 C 47.882812 20.355469 47.882812 20.394531 47.882812 20.433594 C 47.878906 20.601562 47.878906 20.601562 48.214844 20.753906 C 48.476562 20.789062 48.757812 20.796875 49.074219 20.808594 C 49.152344 20.8125 49.230469 20.816406 49.3125 20.820312 C 49.371094 20.820312 49.429688 20.824219 49.488281 20.824219 C 49.488281 20.867188 49.488281 20.910156 49.488281 20.953125 C 47.710938 20.953125 45.933594 20.953125 44.101562 20.953125 C 44.101562 20.910156 44.101562 20.867188 44.101562 20.824219 C 44.179688 20.824219 44.261719 20.820312 44.347656 20.816406 C 44.453125 20.8125 44.558594 20.808594 44.667969 20.804688 C 44.773438 20.800781 44.882812 20.796875 44.988281 20.789062 C 45.316406 20.769531 45.410156 20.753906 45.570312 20.699219 C 45.660156 20.632812 45.683594 20.570312 45.683594 20.503906 C 45.6875 20.484375 45.6875 20.460938 45.6875 20.441406 C 45.691406 20.417969 45.691406 20.394531 45.691406 20.375 C 45.691406 20.339844 45.691406 20.339844 45.695312 20.300781 C 45.695312 20.253906 45.695312 20.203125 45.695312 20.15625 C 45.699219 20.09375 45.703125 20.03125 45.707031 19.96875 C 45.707031 19.90625 45.707031 19.847656 45.710938 19.785156 C 45.710938 19.753906 45.710938 19.753906 45.714844 19.71875 C 45.710938 19.53125 45.589844 19.347656 44.882812 19.207031 C 44.140625 19.125 43.367188 19.113281 42.539062 19.152344 C 41.714844 19.203125 41.160156 19.300781 40.6875 19.429688 C 40.332031 19.570312 40.34375 19.707031 40.34375 19.859375 C 40.34375 19.882812 40.339844 19.902344 40.339844 19.925781 C 40.339844 19.976562 40.339844 20.023438 40.339844 20.070312 C 40.339844 20.132812 40.335938 20.191406 40.332031 20.253906 C 40.332031 20.3125 40.332031 20.371094 40.332031 20.429688 C 40.328125 20.453125 40.328125 20.472656 40.328125 20.496094 C 40.328125 20.648438 40.328125 20.648438 40.769531 20.773438 C 41.0625 20.792969 41.0625 20.792969 41.378906 20.796875 C 41.539062 20.800781 41.539062 20.800781 41.699219 20.804688 C 41.78125 20.804688 41.859375 20.804688 41.945312 20.808594 C 41.945312 20.855469 41.945312 20.902344 41.945312 20.953125 C 40.132812 20.953125 38.320312 20.953125 36.457031 20.953125 C 36.457031 20.824219 36.457031 20.824219 36.554688 20.808594 C 36.726562 20.800781 36.902344 20.796875 37.074219 20.792969 C 37.410156 20.78125 37.605469 20.773438 37.890625 20.742188 C 38.160156 20.660156 38.132812 20.5625 38.136719 20.472656 C 38.136719 20.449219 38.136719 20.421875 38.136719 20.398438 C 38.136719 20.375 38.136719 20.347656 38.136719 20.320312 C 38.140625 20.296875 38.140625 20.269531 38.140625 20.242188 C 38.140625 20.1875 38.140625 20.132812 38.140625 20.074219 C 38.140625 20.003906 38.140625 19.933594 38.144531 19.863281 C 38.144531 19.808594 38.144531 19.753906 38.144531 19.699219 C 38.144531 19.671875 38.144531 19.644531 38.144531 19.621094 C 38.148438 19.582031 38.144531 19.546875 38.144531 19.507812 C 38.144531 19.488281 38.144531 19.46875 38.144531 19.445312 C 38.113281 19.363281 38.0625 19.285156 37.753906 19.226562 C 37.484375 19.203125 37.269531 19.195312 36.96875 19.195312 C 36.824219 19.191406 36.824219 19.191406 36.679688 19.191406 C 36.605469 19.1875 36.53125 19.1875 36.457031 19.1875 C 36.457031 19.140625 36.457031 19.09375 36.457031 19.042969 C 36.914062 19.023438 37.371094 19.003906 37.828125 18.984375 C 37.984375 18.976562 38.136719 18.96875 38.292969 18.960938 C 38.515625 18.953125 38.738281 18.941406 38.964844 18.929688 C 39.03125 18.929688 39.101562 18.925781 39.175781 18.921875 C 39.667969 18.898438 39.667969 18.898438 39.886719 18.898438 Z M 39.886719 18.898438 "/>
<path style=" stroke:none;fill-rule:nonzero;fill:rgb(98.039216%,98.039216%,98.039216%);fill-opacity:1;" d="M 99.46875 18.898438 C 99.613281 18.988281 99.609375 19.078125 99.636719 19.167969 C 99.644531 19.222656 99.644531 19.222656 99.765625 19.261719 C 99.8125 19.25 99.859375 19.238281 99.910156 19.230469 C 100.988281 19.015625 102.285156 18.90625 103.875 18.890625 C 105.066406 18.898438 106 18.96875 106.84375 19.121094 C 107.371094 19.273438 107.464844 19.425781 107.457031 19.605469 C 107.457031 19.644531 107.457031 19.683594 107.460938 19.722656 C 107.460938 19.792969 107.464844 19.863281 107.464844 19.929688 C 107.464844 20.042969 107.464844 20.152344 107.46875 20.261719 C 107.46875 20.300781 107.46875 20.339844 107.46875 20.375 C 107.472656 20.503906 107.476562 20.621094 107.800781 20.734375 C 108.171875 20.796875 108.585938 20.800781 109.074219 20.808594 C 109.074219 20.855469 109.074219 20.902344 109.074219 20.953125 C 107.296875 20.953125 105.515625 20.953125 103.683594 20.953125 C 103.683594 20.90625 103.683594 20.855469 103.683594 20.808594 C 104.136719 20.796875 104.589844 20.785156 105.054688 20.773438 C 105.308594 20.636719 105.390625 20.523438 105.386719 20.382812 C 105.386719 20.363281 105.386719 20.34375 105.386719 20.324219 C 105.386719 20.28125 105.382812 20.242188 105.382812 20.199219 C 105.378906 20.136719 105.382812 20.074219 105.382812 20.015625 C 105.464844 19.574219 105.464844 19.574219 104.425781 19.195312 C 103.808594 19.128906 103.210938 19.117188 102.507812 19.132812 C 101.554688 19.1875 100.894531 19.261719 100.371094 19.414062 C 99.976562 19.558594 99.917969 19.675781 99.921875 19.835938 C 99.921875 19.871094 99.921875 19.871094 99.921875 19.902344 C 99.917969 19.949219 99.921875 19.996094 99.921875 20.042969 C 99.921875 20.117188 99.921875 20.1875 99.917969 20.257812 C 99.921875 20.304688 99.921875 20.351562 99.921875 20.394531 C 99.921875 20.417969 99.917969 20.4375 99.917969 20.460938 C 99.925781 20.570312 99.945312 20.65625 100.253906 20.753906 C 100.660156 20.792969 101.082031 20.796875 101.527344 20.808594 C 101.625 20.824219 101.625 20.824219 101.625 20.953125 C 99.816406 20.953125 98.003906 20.953125 96.136719 20.953125 C 96.136719 20.90625 96.136719 20.855469 96.136719 20.808594 C 96.226562 20.808594 96.226562 20.808594 96.3125 20.804688 C 96.777344 20.800781 97.136719 20.792969 97.511719 20.734375 C 97.742188 20.671875 97.730469 20.613281 97.734375 20.539062 C 97.734375 20.523438 97.734375 20.511719 97.734375 20.5 C 97.734375 20.457031 97.734375 20.414062 97.734375 20.375 C 97.734375 20.34375 97.734375 20.316406 97.738281 20.285156 C 97.738281 20.226562 97.738281 20.164062 97.738281 20.105469 C 97.738281 20.027344 97.738281 19.949219 97.742188 19.871094 C 97.742188 19.8125 97.742188 19.75 97.742188 19.691406 C 97.742188 19.660156 97.742188 19.632812 97.742188 19.605469 C 97.746094 19.5625 97.742188 19.523438 97.742188 19.484375 C 97.742188 19.460938 97.742188 19.4375 97.742188 19.414062 C 97.699219 19.339844 97.609375 19.292969 97.410156 19.222656 C 97.105469 19.203125 97.105469 19.203125 96.761719 19.199219 C 96.140625 19.1875 96.140625 19.1875 96.039062 19.171875 C 96.035156 19.128906 96.035156 19.085938 96.039062 19.042969 C 96.496094 19.023438 96.953125 19.003906 97.410156 18.984375 C 97.566406 18.976562 97.722656 18.96875 97.878906 18.960938 C 98.101562 18.953125 98.324219 18.941406 98.546875 18.929688 C 98.617188 18.929688 98.6875 18.925781 98.757812 18.921875 C 99.25 18.898438 99.25 18.898438 99.46875 18.898438 Z M 99.46875 18.898438 "/>
<path style=" stroke:none;fill-rule:nonzero;fill:rgb(97.647059%,97.647059%,97.647059%);fill-opacity:1;" d="M 56.398438 18.894531 C 57.613281 18.886719 58.765625 18.949219 59.683594 19.097656 C 60.335938 19.210938 60.730469 19.359375 60.78125 19.523438 C 60.78125 19.546875 60.785156 19.570312 60.785156 19.59375 C 60.785156 19.609375 60.789062 19.621094 60.789062 19.632812 C 60.792969 19.667969 60.792969 19.667969 60.761719 19.726562 C 60.398438 19.773438 60.21875 19.769531 59.785156 19.769531 C 59.714844 19.769531 59.648438 19.769531 59.578125 19.769531 C 59.347656 19.769531 59.121094 19.769531 58.894531 19.765625 C 58.734375 19.765625 58.578125 19.765625 58.421875 19.765625 C 58.003906 19.765625 57.589844 19.765625 57.175781 19.765625 C 56.75 19.765625 56.328125 19.765625 55.902344 19.765625 C 55.074219 19.765625 54.242188 19.765625 53.410156 19.765625 C 53.40625 19.816406 53.402344 19.871094 53.398438 19.925781 C 53.398438 19.941406 53.398438 19.957031 53.394531 19.972656 C 53.386719 20.222656 53.816406 20.464844 54.78125 20.644531 C 55.605469 20.761719 56.5 20.792969 57.527344 20.773438 C 58.386719 20.734375 59.0625 20.65625 59.65625 20.539062 C 59.878906 20.503906 59.878906 20.503906 60.082031 20.5 C 60.320312 20.523438 60.480469 20.554688 60.660156 20.59375 C 60.273438 20.761719 59.308594 20.851562 58.457031 20.925781 C 57.164062 21.023438 55.484375 21.03125 54.175781 20.941406 C 53.007812 20.839844 52.125 20.703125 51.503906 20.492188 C 51.472656 20.480469 51.441406 20.472656 51.40625 20.460938 C 51.019531 20.320312 50.925781 20.183594 50.941406 20.027344 C 50.941406 20.011719 50.945312 20 50.945312 19.984375 C 50.949219 19.941406 50.953125 19.898438 50.960938 19.855469 C 50.960938 19.832031 50.964844 19.8125 50.964844 19.792969 C 51.027344 19.535156 51.753906 19.320312 52.734375 19.148438 C 53.792969 18.984375 55.046875 18.917969 56.398438 18.894531 Z M 56.398438 18.894531 "/>
<path style=" stroke:none;fill-rule:nonzero;fill:rgb(81.568629%,18.039216%,25.490198%);fill-opacity:1;" d="M 79.460938 8.515625 C 80.089844 8.613281 80.667969 8.761719 80.78125 8.914062 C 80.792969 8.957031 80.796875 9 80.792969 9.042969 C 80.792969 9.058594 80.792969 9.074219 80.792969 9.089844 C 80.777344 9.199219 80.703125 9.285156 80.359375 9.378906 C 80.320312 9.390625 80.277344 9.402344 80.234375 9.414062 C 79.640625 9.574219 78.867188 9.664062 77.867188 9.714844 C 76.746094 9.738281 75.710938 9.703125 74.800781 9.578125 C 74.015625 9.445312 73.566406 9.300781 73.472656 9.105469 C 73.441406 8.902344 73.683594 8.753906 74.394531 8.597656 C 75.753906 8.339844 77.875 8.308594 79.460938 8.515625 Z M 79.460938 8.515625 "/>
<path style=" stroke:none;fill-rule:nonzero;fill:rgb(97.647059%,97.647059%,97.647059%);fill-opacity:1;" d="M 119.570312 19.074219 C 119.84375 19.125 119.988281 19.171875 120.027344 19.246094 C 119.953125 19.316406 119.875 19.347656 119.550781 19.386719 C 119.1875 19.417969 118.867188 19.421875 118.480469 19.402344 C 118.082031 19.359375 117.78125 19.300781 117.503906 19.230469 C 117.144531 19.152344 116.765625 19.121094 116.222656 19.109375 C 115.433594 19.105469 114.71875 19.121094 114.089844 19.214844 C 113.675781 19.292969 113.480469 19.390625 113.289062 19.492188 C 113.253906 19.511719 113.222656 19.527344 113.1875 19.542969 C 113.03125 19.640625 113.058594 19.734375 113.0625 19.835938 C 113.0625 19.871094 113.058594 19.90625 113.054688 19.945312 C 113.050781 20.210938 113.261719 20.4375 114.210938 20.644531 C 115.007812 20.765625 115.800781 20.789062 116.816406 20.773438 C 117.789062 20.734375 118.578125 20.652344 119.265625 20.519531 C 119.460938 20.519531 119.460938 20.519531 119.71875 20.5625 C 119.953125 20.609375 119.953125 20.609375 119.953125 20.664062 C 119.152344 20.84375 117.757812 20.960938 116.523438 20.988281 C 115.441406 21.003906 114.363281 21.011719 113.386719 20.914062 C 113.300781 20.90625 113.214844 20.898438 113.128906 20.890625 C 111.894531 20.765625 111.105469 20.566406 110.683594 20.320312 C 110.257812 20.023438 110.386719 19.671875 111.199219 19.398438 C 112.105469 19.144531 113.347656 18.976562 114.972656 18.914062 C 116.546875 18.867188 118.28125 18.886719 119.570312 19.074219 Z M 119.570312 19.074219 "/>
<path style=" stroke:none;fill-rule:nonzero;fill:rgb(97.254902%,97.254902%,97.254902%);fill-opacity:1;" d="M 33.515625 18.898438 C 33.515625 18.933594 33.515625 18.933594 33.515625 18.964844 C 33.519531 19.167969 33.527344 19.367188 33.535156 19.570312 C 33.539062 19.671875 33.542969 19.777344 33.542969 19.878906 C 33.542969 19.980469 33.546875 20.082031 33.550781 20.179688 C 33.554688 20.21875 33.554688 20.257812 33.554688 20.292969 C 33.554688 20.347656 33.558594 20.402344 33.558594 20.453125 C 33.558594 20.472656 33.558594 20.488281 33.558594 20.503906 C 33.570312 20.605469 33.679688 20.667969 34.007812 20.753906 C 34.410156 20.800781 34.910156 20.800781 35.378906 20.808594 C 35.378906 20.855469 35.378906 20.902344 35.378906 20.953125 C 33.40625 20.953125 31.433594 20.953125 29.398438 20.953125 C 29.398438 20.90625 29.398438 20.855469 29.398438 20.808594 C 29.480469 20.804688 29.5625 20.804688 29.644531 20.800781 C 29.800781 20.796875 29.800781 20.796875 29.964844 20.792969 C 30.121094 20.785156 30.121094 20.785156 30.28125 20.78125 C 30.628906 20.769531 30.628906 20.769531 30.96875 20.753906 C 31.261719 20.671875 31.273438 20.585938 31.277344 20.488281 C 31.277344 20.476562 31.277344 20.464844 31.277344 20.453125 C 31.277344 20.414062 31.277344 20.375 31.277344 20.335938 C 31.277344 20.308594 31.277344 20.28125 31.28125 20.25 C 31.28125 20.195312 31.28125 20.136719 31.28125 20.078125 C 31.28125 20.003906 31.28125 19.929688 31.28125 19.859375 C 31.285156 19.800781 31.285156 19.742188 31.285156 19.6875 C 31.285156 19.660156 31.285156 19.632812 31.285156 19.605469 C 31.285156 19.566406 31.285156 19.527344 31.285156 19.492188 C 31.285156 19.46875 31.285156 19.449219 31.285156 19.425781 C 31.253906 19.351562 31.179688 19.300781 30.898438 19.246094 C 30.605469 19.21875 30.34375 19.210938 30.011719 19.203125 C 29.839844 19.199219 29.839844 19.199219 29.664062 19.195312 C 29.535156 19.191406 29.535156 19.191406 29.398438 19.1875 C 29.398438 19.140625 29.398438 19.09375 29.398438 19.042969 C 29.953125 19.023438 30.507812 19.003906 31.0625 18.984375 C 31.253906 18.976562 31.441406 18.96875 31.628906 18.960938 C 31.902344 18.953125 32.171875 18.941406 32.445312 18.929688 C 32.527344 18.929688 32.613281 18.925781 32.699219 18.921875 C 33.296875 18.898438 33.296875 18.898438 33.515625 18.898438 Z M 33.515625 18.898438 "/>
<path style=" stroke:none;fill-rule:nonzero;fill:rgb(81.960785%,18.039216%,25.490198%);fill-opacity:1;" d="M 93.246094 8.398438 C 93.324219 8.398438 93.398438 8.398438 93.476562 8.398438 C 93.6875 8.40625 93.6875 8.40625 93.847656 8.433594 C 94.023438 8.492188 94.019531 8.527344 94.019531 8.589844 C 94.019531 8.613281 94.019531 8.636719 94.019531 8.660156 C 94.019531 8.6875 94.019531 8.710938 94.019531 8.738281 C 94.019531 8.765625 94.019531 8.792969 94.019531 8.820312 C 94.019531 8.890625 94.019531 8.964844 94.019531 9.039062 C 94.015625 9.117188 94.015625 9.191406 94.019531 9.269531 C 94.019531 9.398438 94.015625 9.527344 94.015625 9.65625 C 94.011719 9.804688 94.011719 9.953125 94.011719 10.101562 C 94.015625 10.246094 94.011719 10.390625 94.011719 10.535156 C 94.011719 10.59375 94.011719 10.65625 94.011719 10.714844 C 94.011719 10.789062 94.011719 10.859375 94.007812 10.933594 C 94.007812 10.957031 94.007812 10.984375 94.007812 11.011719 C 94.007812 11.046875 94.007812 11.082031 94.007812 11.121094 C 94.007812 11.140625 94.007812 11.160156 94.007812 11.179688 C 93.980469 11.230469 93.941406 11.261719 93.785156 11.304688 C 93.480469 11.332031 93.136719 11.335938 92.804688 11.320312 C 92.488281 11.261719 92.476562 11.21875 92.476562 11.136719 C 92.472656 11.113281 92.472656 11.089844 92.472656 11.066406 C 92.472656 11.039062 92.472656 11.011719 92.472656 10.988281 C 92.472656 10.960938 92.472656 10.933594 92.472656 10.90625 C 92.472656 10.828125 92.472656 10.753906 92.472656 10.679688 C 92.472656 10.601562 92.472656 10.527344 92.472656 10.449219 C 92.472656 10.316406 92.472656 10.1875 92.472656 10.054688 C 92.476562 9.90625 92.476562 9.753906 92.472656 9.601562 C 92.472656 9.472656 92.472656 9.34375 92.472656 9.210938 C 92.472656 9.136719 92.472656 9.058594 92.472656 8.980469 C 92.472656 8.90625 92.472656 8.835938 92.472656 8.761719 C 92.472656 8.734375 92.472656 8.707031 92.472656 8.679688 C 92.472656 8.644531 92.472656 8.609375 92.476562 8.570312 C 92.476562 8.550781 92.476562 8.53125 92.476562 8.511719 C 92.511719 8.460938 92.511719 8.460938 92.648438 8.425781 C 92.855469 8.398438 92.996094 8.398438 93.246094 8.398438 Z M 93.246094 8.398438 "/>
<path style=" stroke:none;fill-rule:nonzero;fill:rgb(27.058825%,13.725491%,15.294118%);fill-opacity:1;" d="M 78.425781 8.671875 C 79.003906 8.75 79.410156 8.855469 79.511719 8.992188 C 79.550781 9.121094 79.390625 9.21875 78.988281 9.324219 C 78.515625 9.417969 78.070312 9.472656 77.363281 9.476562 C 76.683594 9.476562 76.183594 9.472656 75.632812 9.390625 C 75.011719 9.277344 74.835938 9.175781 74.835938 9.015625 C 74.847656 8.90625 74.960938 8.828125 75.363281 8.746094 C 76.21875 8.617188 77.402344 8.558594 78.425781 8.671875 Z M 78.425781 8.671875 "/>
<path style=" stroke:none;fill-rule:nonzero;fill:rgb(13.725491%,13.725491%,13.725491%);fill-opacity:1;" d="M 91.140625 19.835938 C 91.144531 19.902344 91.148438 19.96875 91.152344 20.03125 C 91.152344 20.050781 91.15625 20.070312 91.15625 20.089844 C 91.164062 20.300781 90.96875 20.46875 90.164062 20.628906 C 89.570312 20.730469 89.046875 20.761719 88.238281 20.757812 C 87.777344 20.75 87.515625 20.703125 87.207031 20.640625 C 86.882812 20.554688 86.9375 20.460938 87.023438 20.359375 C 87.167969 20.292969 87.359375 20.246094 87.613281 20.195312 C 87.664062 20.183594 87.714844 20.175781 87.765625 20.164062 C 88.449219 20.039062 90.15625 19.835938 91.140625 19.835938 Z M 91.140625 19.835938 "/>
<path style=" stroke:none;fill-rule:nonzero;fill:rgb(81.568629%,18.039216%,25.490198%);fill-opacity:1;" d="M 58.585938 8.902344 C 58.664062 8.902344 58.742188 8.902344 58.820312 8.898438 C 59.074219 8.898438 59.328125 8.898438 59.582031 8.902344 C 59.757812 8.898438 59.933594 8.898438 60.109375 8.898438 C 60.480469 8.898438 60.851562 8.898438 61.21875 8.902344 C 61.695312 8.902344 62.167969 8.902344 62.640625 8.898438 C 63.003906 8.898438 63.371094 8.898438 63.734375 8.898438 C 63.910156 8.902344 64.082031 8.898438 64.257812 8.898438 C 64.503906 8.898438 64.746094 8.898438 64.992188 8.902344 C 65.0625 8.902344 65.136719 8.902344 65.210938 8.898438 C 65.542969 8.902344 65.726562 8.90625 66 8.941406 C 66.21875 9 66.203125 9.039062 66.148438 9.109375 C 66 9.148438 66 9.148438 65.757812 9.179688 C 65.488281 9.1875 65.257812 9.191406 64.992188 9.1875 C 64.914062 9.1875 64.835938 9.191406 64.757812 9.191406 C 64.503906 9.191406 64.25 9.191406 63.996094 9.191406 C 63.820312 9.191406 63.644531 9.191406 63.46875 9.191406 C 63.097656 9.191406 62.726562 9.191406 62.359375 9.1875 C 61.882812 9.1875 61.410156 9.1875 60.9375 9.191406 C 60.574219 9.191406 60.207031 9.191406 59.84375 9.191406 C 59.667969 9.191406 59.496094 9.191406 59.320312 9.191406 C 59.074219 9.191406 58.832031 9.191406 58.585938 9.1875 C 58.480469 9.191406 58.480469 9.191406 58.367188 9.191406 C 58.035156 9.1875 57.851562 9.183594 57.578125 9.148438 C 57.359375 9.089844 57.375 9.050781 57.429688 8.980469 C 57.742188 8.898438 58.078125 8.898438 58.585938 8.902344 Z M 58.585938 8.902344 "/>
<path style=" stroke:none;fill-rule:nonzero;fill:rgb(15.294118%,15.294118%,15.294118%);fill-opacity:1;" d="M 57.558594 19.144531 C 58.050781 19.21875 58.449219 19.304688 58.53125 19.421875 C 58.542969 19.460938 58.542969 19.460938 58.507812 19.53125 C 58.304688 19.566406 58.171875 19.582031 57.890625 19.589844 C 57.8125 19.589844 57.730469 19.589844 57.648438 19.589844 C 57.554688 19.589844 57.460938 19.589844 57.367188 19.589844 C 57.269531 19.589844 57.167969 19.589844 57.066406 19.589844 C 56.964844 19.589844 56.863281 19.589844 56.761719 19.589844 C 56.433594 19.589844 56.109375 19.589844 55.785156 19.585938 C 55.566406 19.585938 55.347656 19.585938 55.125 19.585938 C 54.585938 19.585938 54.046875 19.585938 53.507812 19.585938 C 53.699219 19.402344 54.046875 19.261719 54.878906 19.152344 C 55.648438 19.066406 56.78125 19.058594 57.558594 19.144531 Z M 57.558594 19.144531 "/>
<path style=" stroke:none;fill-rule:nonzero;fill:rgb(26.666668%,13.725491%,15.294118%);fill-opacity:1;" d="M 68.402344 12.671875 C 71.765625 12.671875 75.128906 12.671875 78.597656 12.671875 C 78.597656 12.714844 78.597656 12.753906 78.597656 12.796875 C 75.234375 12.796875 71.871094 12.796875 68.402344 12.796875 C 68.402344 12.757812 68.402344 12.714844 68.402344 12.671875 Z M 68.402344 12.671875 "/>
<path style=" stroke:none;fill-rule:nonzero;fill:rgb(81.176472%,18.039216%,25.490198%);fill-opacity:1;" d="M 68.859375 8.902344 C 68.933594 8.902344 69.003906 8.902344 69.078125 8.902344 C 69.230469 8.902344 69.382812 8.902344 69.535156 8.902344 C 69.769531 8.902344 70 8.902344 70.234375 8.902344 C 70.382812 8.902344 70.53125 8.902344 70.679688 8.902344 C 70.75 8.902344 70.816406 8.902344 70.886719 8.902344 C 71.316406 8.902344 71.589844 8.914062 71.933594 8.964844 C 72.070312 9.015625 72.0625 9.050781 72.03125 9.109375 C 71.882812 9.148438 71.882812 9.148438 71.636719 9.179688 C 71.351562 9.1875 71.105469 9.191406 70.820312 9.191406 C 70.703125 9.191406 70.703125 9.191406 70.582031 9.191406 C 70.414062 9.191406 70.246094 9.191406 70.082031 9.191406 C 69.824219 9.191406 69.570312 9.191406 69.316406 9.191406 C 69.152344 9.191406 68.992188 9.191406 68.828125 9.191406 C 68.753906 9.191406 68.675781 9.191406 68.597656 9.191406 C 68.222656 9.191406 68.046875 9.1875 67.765625 9.136719 C 67.621094 9.089844 67.621094 9.089844 67.621094 9.023438 C 67.816406 8.902344 68.238281 8.902344 68.859375 8.902344 Z M 68.859375 8.902344 "/>
<path style=" stroke:none;fill-rule:nonzero;fill:rgb(98.039216%,98.039216%,98.039216%);fill-opacity:1;" d="M 32.828125 17.910156 C 33.179688 17.941406 33.40625 17.976562 33.613281 18.035156 C 33.734375 18.121094 33.730469 18.195312 33.492188 18.273438 C 33.207031 18.339844 32.992188 18.371094 32.535156 18.382812 C 32.078125 18.386719 31.816406 18.382812 31.457031 18.328125 C 31.132812 18.273438 31.046875 18.21875 31.023438 18.140625 C 31.027344 18.054688 31.1875 18.011719 31.507812 17.953125 C 31.886719 17.890625 32.351562 17.894531 32.828125 17.910156 Z M 32.828125 17.910156 "/>
<path style=" stroke:none;fill-rule:nonzero;fill:rgb(81.176472%,18.039216%,25.490198%);fill-opacity:1;" d="M 79.773438 11.609375 C 80.125 11.675781 80.105469 11.730469 80.109375 11.820312 C 80.109375 11.84375 80.109375 11.84375 80.109375 11.871094 C 80.109375 11.886719 80.113281 11.90625 80.113281 11.921875 C 80.113281 12.046875 80.113281 12.046875 79.890625 12.105469 C 79.570312 12.144531 79.359375 12.144531 78.988281 12.132812 C 78.742188 12.09375 78.613281 12.0625 78.558594 12.003906 C 78.542969 11.953125 78.542969 11.910156 78.546875 11.859375 C 78.546875 11.84375 78.542969 11.828125 78.542969 11.8125 C 78.546875 11.695312 78.546875 11.695312 78.769531 11.636719 C 79.132812 11.59375 79.347656 11.601562 79.773438 11.609375 Z M 79.773438 11.609375 "/>
<path style=" stroke:none;fill-rule:nonzero;fill:rgb(81.568629%,18.039216%,25.490198%);fill-opacity:1;" d="M 75.847656 11.601562 C 76.15625 11.617188 76.257812 11.632812 76.441406 11.683594 C 76.5 11.742188 76.496094 11.800781 76.488281 11.859375 C 76.492188 11.878906 76.492188 11.894531 76.492188 11.910156 C 76.492188 11.984375 76.476562 12.03125 76.261719 12.097656 C 76.046875 12.132812 76.046875 12.132812 75.703125 12.140625 C 75.363281 12.132812 75.363281 12.132812 75.148438 12.105469 C 74.867188 12.03125 74.917969 11.960938 74.925781 11.871094 C 74.925781 11.855469 74.925781 11.835938 74.925781 11.820312 C 74.933594 11.679688 74.992188 11.601562 75.847656 11.601562 Z M 75.847656 11.601562 "/>
<path style=" stroke:none;fill-rule:nonzero;fill:rgb(80.784315%,18.039216%,25.490198%);fill-opacity:1;" d="M 72.222656 11.597656 C 72.550781 11.617188 72.644531 11.644531 72.8125 11.699219 C 72.871094 11.757812 72.867188 11.8125 72.863281 11.871094 C 72.863281 11.886719 72.867188 11.902344 72.867188 11.917969 C 72.863281 11.992188 72.84375 12.03125 72.640625 12.097656 C 72.410156 12.132812 72.324219 12.144531 72.023438 12.140625 C 71.636719 12.132812 71.636719 12.132812 71.46875 12.101562 C 71.324219 12.054688 71.304688 12.023438 71.304688 11.96875 C 71.304688 11.949219 71.304688 11.933594 71.304688 11.914062 C 71.304688 11.898438 71.304688 11.878906 71.308594 11.859375 C 71.304688 11.84375 71.304688 11.824219 71.304688 11.804688 C 71.304688 11.789062 71.304688 11.769531 71.304688 11.753906 C 71.304688 11.738281 71.304688 11.722656 71.304688 11.707031 C 71.34375 11.664062 71.34375 11.664062 71.46875 11.632812 C 71.707031 11.601562 71.941406 11.601562 72.222656 11.597656 Z M 72.222656 11.597656 "/>
<path style=" stroke:none;fill-rule:nonzero;fill:rgb(81.176472%,18.039216%,25.490198%);fill-opacity:1;" d="M 68.796875 11.609375 C 69.148438 11.675781 69.128906 11.730469 69.136719 11.820312 C 69.132812 11.84375 69.132812 11.84375 69.132812 11.871094 C 69.136719 11.886719 69.136719 11.90625 69.140625 11.921875 C 69.136719 12.046875 69.136719 12.046875 68.914062 12.105469 C 68.59375 12.144531 68.382812 12.144531 68.011719 12.132812 C 67.769531 12.09375 67.636719 12.0625 67.582031 12.003906 C 67.566406 11.953125 67.566406 11.910156 67.570312 11.859375 C 67.570312 11.84375 67.566406 11.828125 67.566406 11.8125 C 67.570312 11.695312 67.570312 11.695312 67.792969 11.636719 C 68.15625 11.59375 68.371094 11.601562 68.796875 11.609375 Z M 68.796875 11.609375 "/>
<path style=" stroke:none;fill-rule:nonzero;fill:rgb(81.568629%,18.039216%,25.490198%);fill-opacity:1;" d="M 65.070312 11.609375 C 65.289062 11.636719 65.289062 11.636719 65.464844 11.683594 C 65.515625 11.742188 65.507812 11.800781 65.5 11.863281 C 65.5 11.878906 65.5 11.894531 65.5 11.910156 C 65.492188 12.046875 65.492188 12.046875 65.269531 12.113281 C 64.96875 12.140625 64.714844 12.136719 64.386719 12.132812 C 64.179688 12.105469 64.109375 12.082031 63.992188 12.042969 C 63.964844 11.984375 63.964844 11.921875 63.964844 11.863281 C 63.960938 11.847656 63.957031 11.832031 63.953125 11.816406 C 63.949219 11.695312 63.949219 11.695312 64.171875 11.636719 C 64.488281 11.597656 64.703125 11.601562 65.070312 11.609375 Z M 65.070312 11.609375 "/>
<path style=" stroke:none;fill-rule:nonzero;fill:rgb(81.176472%,18.039216%,25.490198%);fill-opacity:1;" d="M 61.246094 11.597656 C 61.574219 11.617188 61.667969 11.644531 61.839844 11.699219 C 61.894531 11.757812 61.894531 11.8125 61.886719 11.871094 C 61.886719 11.886719 61.890625 11.902344 61.890625 11.917969 C 61.890625 11.992188 61.867188 12.03125 61.660156 12.097656 C 61.445312 12.132812 61.445312 12.132812 61.101562 12.140625 C 60.761719 12.132812 60.761719 12.132812 60.546875 12.109375 C 60.261719 12.03125 60.316406 11.953125 60.324219 11.859375 C 60.324219 11.832031 60.324219 11.832031 60.324219 11.804688 C 60.328125 11.675781 60.328125 11.675781 60.492188 11.632812 C 60.730469 11.601562 60.964844 11.601562 61.246094 11.597656 Z M 61.246094 11.597656 "/>
<path style=" stroke:none;fill-rule:nonzero;fill:rgb(80.784315%,18.039216%,25.490198%);fill-opacity:1;" d="M 57.433594 11.601562 C 57.820312 11.609375 57.820312 11.609375 57.988281 11.632812 C 58.242188 11.695312 58.160156 11.785156 58.15625 11.859375 C 58.160156 11.878906 58.160156 11.898438 58.164062 11.914062 C 58.164062 12.046875 58.164062 12.046875 57.9375 12.109375 C 57.617188 12.144531 57.402344 12.144531 57.035156 12.132812 C 56.714844 12.078125 56.617188 12.039062 56.59375 11.960938 C 56.589844 11.929688 56.59375 11.902344 56.59375 11.871094 C 56.59375 11.855469 56.59375 11.839844 56.589844 11.824219 C 56.59375 11.75 56.613281 11.710938 56.816406 11.644531 C 57.050781 11.609375 57.132812 11.597656 57.433594 11.601562 Z M 57.433594 11.601562 "/>
<path style=" stroke:none;fill-rule:nonzero;fill:rgb(81.960785%,18.039216%,25.490198%);fill-opacity:1;" d="M 83.007812 11.601562 C 83.105469 11.601562 83.105469 11.601562 83.207031 11.601562 C 83.457031 11.613281 83.535156 11.628906 83.691406 11.664062 C 83.753906 11.730469 83.738281 11.792969 83.734375 11.859375 C 83.738281 11.878906 83.738281 11.898438 83.742188 11.914062 C 83.742188 12.046875 83.742188 12.046875 83.515625 12.109375 C 83.199219 12.144531 82.972656 12.140625 82.613281 12.132812 C 82.449219 12.109375 82.449219 12.109375 82.320312 12.078125 C 82.28125 12.035156 82.28125 12.035156 82.28125 11.984375 C 82.28125 11.964844 82.28125 11.949219 82.28125 11.929688 C 82.28125 11.910156 82.28125 11.890625 82.285156 11.871094 C 82.28125 11.851562 82.28125 11.832031 82.28125 11.8125 C 82.28125 11.785156 82.28125 11.785156 82.28125 11.757812 C 82.28125 11.742188 82.28125 11.722656 82.28125 11.707031 C 82.351562 11.628906 82.585938 11.601562 83.007812 11.601562 Z M 83.007812 11.601562 "/>
<path style=" stroke:none;fill-rule:nonzero;fill:rgb(32.549021%,14.117648%,16.078432%);fill-opacity:1;" d="M 77.125 6.894531 C 77.609375 6.894531 78.097656 6.894531 78.597656 6.894531 C 78.597656 6.941406 78.597656 6.988281 78.597656 7.039062 C 78.109375 7.039062 77.625 7.039062 77.125 7.039062 C 77.125 6.992188 77.125 6.941406 77.125 6.894531 Z M 77.125 6.894531 "/>
</g>
</svg>
