<?xml version="1.0" encoding="UTF-8"?>
<svg xmlns="http://www.w3.org/2000/svg" xmlns:xlink="http://www.w3.org/1999/xlink" width="150px" height="70px" viewBox="0 0 150 70" version="1.1">
<g id="surface1">
<path style=" stroke:none;fill-rule:nonzero;fill:rgb(12.941177%,12.941177%,12.941177%);fill-opacity:1;" d="M 0 0 C 49.5 0 99 0 150 0 C 150 23.101562 150 46.199219 150 70 C 100.5 70 51 70 0 70 C 0 46.898438 0 23.800781 0 0 Z M 0 0 "/>
<path style=" stroke:none;fill-rule:nonzero;fill:rgb(26.666668%,13.725491%,15.294118%);fill-opacity:1;" d="M 74.988281 9.460938 C 75.078125 9.460938 75.167969 9.460938 75.257812 9.460938 C 77.078125 9.460938 78.871094 9.53125 80.664062 9.675781 C 80.851562 9.679688 80.851562 9.679688 81.042969 9.703125 C 87.132812 10.199219 93.039062 11.507812 97.570312 13.480469 C 97.777344 13.566406 97.988281 13.648438 98.199219 13.742188 C 99.003906 14.066406 99.726562 14.421875 100.390625 14.816406 C 100.578125 14.917969 100.777344 15.027344 100.980469 15.132812 C 103.898438 16.648438 105.964844 18.605469 107.296875 20.539062 C 107.328125 20.566406 107.355469 20.613281 107.382812 20.648438 C 109.027344 23.019531 109.140625 25.703125 108.199219 28.140625 C 108.171875 28.214844 108.171875 28.214844 108.144531 28.296875 C 106.671875 32.207031 101.367188 35.796875 94.5 38.078125 C 93.945312 38.257812 93.375 38.433594 92.800781 38.59375 C 92.710938 38.613281 92.621094 38.648438 92.53125 38.664062 C 89.464844 39.542969 86.136719 40.183594 82.632812 40.5625 C 82.515625 40.574219 82.40625 40.578125 82.285156 40.589844 C 81.363281 40.691406 80.441406 40.773438 79.5 40.835938 C 79.421875 40.835938 79.339844 40.847656 79.261719 40.847656 C 73.039062 41.207031 66.824219 40.730469 61.101562 39.578125 C 61.011719 39.554688 60.925781 39.539062 60.835938 39.515625 C 57.738281 38.886719 54.921875 37.957031 52.398438 36.914062 C 52.347656 36.890625 52.292969 36.875 52.234375 36.84375 C 50.949219 36.316406 49.757812 35.726562 48.699219 35.09375 C 48.652344 35.058594 48.605469 35.039062 48.554688 35.011719 C 47.734375 34.523438 46.992188 34.027344 46.300781 33.511719 C 46.257812 33.46875 46.21875 33.441406 46.171875 33.410156 C 42.050781 30.300781 40.386719 26.484375 41.601562 22.863281 C 41.621094 22.804688 41.640625 22.746094 41.660156 22.683594 C 41.960938 21.816406 42.394531 20.949219 43 20.113281 C 43.027344 20.070312 43.058594 20.03125 43.09375 19.984375 C 44.007812 18.726562 45.363281 17.46875 47 16.375 C 47.074219 16.324219 47.148438 16.273438 47.226562 16.226562 C 48.070312 15.65625 49.003906 15.121094 50.003906 14.613281 C 50.1875 14.523438 50.367188 14.421875 50.542969 14.328125 C 51.207031 13.976562 51.933594 13.648438 52.699219 13.347656 C 52.789062 13.304688 52.882812 13.277344 52.972656 13.234375 C 54.472656 12.628906 56.117188 12.113281 57.800781 11.617188 C 57.863281 11.605469 57.929688 11.589844 57.996094 11.566406 C 60.601562 10.804688 63.683594 10.25 66.660156 9.914062 C 66.910156 9.894531 67.15625 9.867188 67.40625 9.832031 C 69.902344 9.546875 72.425781 9.460938 74.988281 9.460938 Z M 74.988281 9.460938 "/>
<path style=" stroke:none;fill-rule:nonzero;fill:rgb(26.666668%,13.725491%,15.294118%);fill-opacity:1;" d="M 79.4375 17.203125 C 79.546875 17.203125 79.664062 17.195312 79.777344 17.195312 C 80.417969 17.195312 80.820312 17.203125 81.300781 17.40625 C 81.679688 17.59375 81.71875 17.734375 81.707031 17.976562 C 81.707031 18.058594 81.707031 18.058594 81.703125 18.128906 C 81.703125 18.167969 81.699219 18.210938 81.699219 18.25 C 81.761719 18.25 81.824219 18.25 81.886719 18.25 C 82.539062 18.238281 83.1875 18.238281 83.835938 18.238281 C 84.074219 18.238281 84.320312 18.226562 84.5625 18.226562 C 84.910156 18.226562 85.257812 18.226562 85.605469 18.226562 C 85.714844 18.226562 85.820312 18.226562 85.933594 18.226562 C 86.6875 18.226562 87.21875 18.28125 87.804688 18.511719 C 87.847656 18.542969 87.890625 18.5625 87.9375 18.59375 C 88.007812 18.632812 88.007812 18.632812 88.078125 18.675781 C 88.375 18.890625 88.425781 19.070312 88.433594 19.332031 C 88.433594 19.363281 88.433594 19.390625 88.4375 19.425781 C 88.4375 19.535156 88.441406 19.648438 88.441406 19.746094 C 88.445312 19.828125 88.445312 19.902344 88.449219 19.972656 C 88.453125 20.175781 88.457031 20.367188 88.460938 20.566406 C 88.464844 20.769531 88.46875 20.972656 88.472656 21.164062 C 88.484375 21.5625 88.492188 21.957031 88.5 22.351562 C 88.546875 22.328125 88.597656 22.316406 88.644531 22.300781 C 88.863281 22.207031 89.085938 22.125 89.304688 22.042969 C 89.382812 22.015625 89.457031 21.984375 89.53125 21.957031 C 89.992188 21.78125 90.449219 21.613281 90.921875 21.4375 C 91.394531 21.269531 91.855469 21.085938 92.3125 20.902344 C 93.648438 20.355469 94.71875 19.960938 96.535156 19.960938 C 96.640625 19.960938 96.742188 19.960938 96.851562 19.960938 C 97.40625 19.960938 97.824219 19.960938 98.300781 20.113281 C 98.777344 20.355469 98.816406 20.519531 98.816406 20.839844 C 98.816406 20.886719 98.816406 20.921875 98.816406 20.960938 C 98.816406 21.105469 98.816406 21.246094 98.816406 21.386719 C 98.820312 21.492188 98.820312 21.589844 98.820312 21.695312 C 98.820312 21.96875 98.824219 22.242188 98.824219 22.515625 C 98.824219 22.683594 98.824219 22.859375 98.824219 23.027344 C 98.828125 23.566406 98.828125 24.09375 98.828125 24.632812 C 98.832031 25.25 98.832031 25.871094 98.835938 26.492188 C 98.839844 26.964844 98.839844 27.449219 98.839844 27.921875 C 98.839844 28.203125 98.84375 28.488281 98.84375 28.78125 C 98.847656 29.042969 98.847656 29.316406 98.847656 29.582031 C 98.847656 29.683594 98.847656 29.78125 98.847656 29.875 C 98.851562 30.019531 98.851562 30.148438 98.847656 30.28125 C 98.851562 30.339844 98.851562 30.339844 98.851562 30.402344 C 98.847656 30.648438 98.753906 30.789062 98.402344 30.992188 C 97.851562 31.183594 97.222656 31.148438 96.566406 31.140625 C 96.460938 31.140625 96.347656 31.140625 96.238281 31.140625 C 95.40625 31.140625 94.632812 31.101562 93.972656 30.847656 C 93.902344 30.816406 93.824219 30.789062 93.75 30.757812 C 93.667969 30.730469 93.585938 30.695312 93.5 30.65625 C 93.398438 30.613281 93.296875 30.585938 93.191406 30.542969 C 92.96875 30.457031 92.746094 30.363281 92.523438 30.269531 C 92.15625 30.128906 91.78125 29.984375 91.40625 29.84375 C 91.167969 29.753906 90.929688 29.664062 90.6875 29.570312 C 90.617188 29.542969 90.542969 29.507812 90.464844 29.480469 C 90.320312 29.425781 90.179688 29.367188 90.035156 29.316406 C 89.652344 29.164062 89.261719 29.023438 88.871094 28.875 C 88.785156 28.84375 88.695312 28.816406 88.605469 28.769531 C 88.535156 28.75 88.46875 28.722656 88.402344 28.699219 C 88.402344 28.742188 88.402344 28.78125 88.40625 28.820312 C 88.414062 29.21875 88.421875 29.613281 88.425781 30.007812 C 88.429688 30.210938 88.433594 30.410156 88.4375 30.613281 C 88.445312 30.816406 88.445312 31.007812 88.449219 31.210938 C 88.449219 31.28125 88.449219 31.351562 88.453125 31.433594 C 88.46875 31.882812 88.445312 32.242188 87.753906 32.597656 C 87.101562 32.882812 86.382812 32.863281 85.546875 32.863281 C 85.4375 32.863281 85.328125 32.863281 85.210938 32.863281 C 84.867188 32.863281 84.515625 32.863281 84.164062 32.863281 C 83.925781 32.863281 83.683594 32.863281 83.445312 32.851562 C 82.863281 32.851562 82.28125 32.851562 81.699219 32.851562 C 81.699219 32.894531 81.703125 32.921875 81.703125 32.964844 C 81.703125 33.003906 81.703125 33.054688 81.707031 33.097656 C 81.707031 33.167969 81.707031 33.167969 81.710938 33.238281 C 81.691406 33.46875 81.492188 33.601562 81.160156 33.765625 C 80.714844 33.9375 80.226562 33.917969 79.679688 33.90625 C 79.566406 33.917969 79.453125 33.917969 79.335938 33.917969 C 78.96875 33.917969 78.597656 33.917969 78.230469 33.917969 C 77.96875 33.917969 77.714844 33.917969 77.457031 33.917969 C 76.917969 33.917969 76.375 33.917969 75.835938 33.917969 C 75.214844 33.917969 74.59375 33.917969 73.96875 33.917969 C 73.371094 33.917969 72.769531 33.917969 72.171875 33.917969 C 71.914062 33.917969 71.660156 33.917969 71.40625 33.917969 C 71.046875 33.917969 70.691406 33.917969 70.335938 33.917969 C 70.230469 33.917969 70.125 33.917969 70.015625 33.917969 C 69.417969 33.917969 69.074219 33.875 68.632812 33.683594 C 68.332031 33.492188 68.277344 33.328125 68.289062 33.097656 C 68.289062 33.046875 68.292969 33.003906 68.292969 32.953125 C 68.296875 32.921875 68.300781 32.894531 68.300781 32.851562 C 68.234375 32.851562 68.171875 32.851562 68.105469 32.851562 C 66.539062 32.851562 64.976562 32.863281 63.410156 32.863281 C 62.652344 32.863281 61.894531 32.863281 61.136719 32.863281 C 60.476562 32.871094 59.816406 32.871094 59.15625 32.871094 C 58.804688 32.871094 58.457031 32.871094 58.109375 32.871094 C 57.71875 32.871094 57.328125 32.871094 56.9375 32.871094 C 56.820312 32.871094 56.703125 32.871094 56.585938 32.871094 C 55.773438 32.871094 55.359375 32.8125 54.730469 32.5625 C 54.082031 32.207031 54.042969 31.898438 54.054688 31.433594 C 54.054688 31.375 54.054688 31.3125 54.054688 31.253906 C 54.054688 31.078125 54.058594 30.921875 54.058594 30.746094 C 54.0625 30.574219 54.0625 30.402344 54.0625 30.21875 C 54.066406 29.898438 54.066406 29.5625 54.070312 29.226562 C 54.078125 28.851562 54.078125 28.46875 54.082031 28.09375 C 54.085938 27.3125 54.089844 26.535156 54.101562 25.761719 C 53.957031 25.734375 53.957031 25.734375 53.8125 25.714844 C 52.890625 25.570312 51.945312 25.347656 51.398438 24.964844 C 51.203125 24.777344 51.171875 24.621094 51.167969 24.417969 C 51.167969 24.386719 51.164062 24.359375 51.164062 24.3125 C 51.160156 24.214844 51.160156 24.113281 51.160156 24.011719 C 51.160156 23.96875 51.160156 23.941406 51.15625 23.898438 C 51.15625 23.71875 51.152344 23.527344 51.152344 23.347656 C 51.152344 23.148438 51.148438 22.957031 51.140625 22.765625 C 51.136719 22.613281 51.136719 22.472656 51.136719 22.316406 C 51.136719 22.253906 51.132812 22.179688 51.132812 22.109375 C 51.117188 21.695312 51.152344 21.367188 51.800781 21.042969 C 52.035156 20.949219 52.035156 20.949219 52.269531 20.902344 C 52.351562 20.875 52.4375 20.851562 52.527344 20.832031 C 52.613281 20.8125 52.707031 20.792969 52.796875 20.769531 C 52.949219 20.730469 52.949219 20.730469 53.101562 20.6875 C 53.867188 20.484375 53.867188 20.484375 54.101562 20.484375 C 54.097656 20.449219 54.09375 20.402344 54.09375 20.367188 C 54.082031 20.203125 54.078125 20.054688 54.074219 19.890625 C 54.070312 19.828125 54.066406 19.757812 54.0625 19.699219 C 54.039062 19.28125 54.046875 18.917969 54.601562 18.570312 C 55.226562 18.296875 55.707031 18.238281 56.558594 18.238281 C 56.644531 18.238281 56.730469 18.238281 56.824219 18.238281 C 57.121094 18.238281 57.417969 18.238281 57.71875 18.238281 C 57.929688 18.238281 58.144531 18.238281 58.355469 18.238281 C 58.933594 18.238281 59.515625 18.238281 60.09375 18.238281 C 60.699219 18.238281 61.300781 18.238281 61.90625 18.238281 C 63.050781 18.238281 64.199219 18.238281 65.34375 18.238281 C 66.644531 18.238281 67.949219 18.238281 69.253906 18.238281 C 71.933594 18.25 74.617188 18.25 77.300781 18.25 C 77.296875 18.199219 77.296875 18.15625 77.292969 18.105469 C 77.292969 18.046875 77.289062 17.996094 77.285156 17.9375 C 77.285156 17.878906 77.28125 17.8125 77.28125 17.75 C 77.300781 17.605469 77.320312 17.53125 77.523438 17.417969 C 78.140625 17.1875 78.667969 17.203125 79.4375 17.203125 Z M 79.4375 17.203125 "/>
<path style=" stroke:none;fill-rule:nonzero;fill:rgb(81.568629%,18.039216%,25.490198%);fill-opacity:1;" d="M 79.4375 17.203125 C 79.546875 17.203125 79.664062 17.195312 79.777344 17.195312 C 80.417969 17.195312 80.820312 17.203125 81.300781 17.40625 C 81.679688 17.59375 81.71875 17.734375 81.707031 17.976562 C 81.707031 18.058594 81.707031 18.058594 81.703125 18.128906 C 81.703125 18.167969 81.699219 18.210938 81.699219 18.25 C 81.761719 18.25 81.824219 18.25 81.886719 18.25 C 82.539062 18.238281 83.1875 18.238281 83.835938 18.238281 C 84.074219 18.238281 84.320312 18.226562 84.5625 18.226562 C 84.910156 18.226562 85.257812 18.226562 85.605469 18.226562 C 85.714844 18.226562 85.820312 18.226562 85.933594 18.226562 C 86.6875 18.226562 87.21875 18.28125 87.804688 18.511719 C 87.847656 18.542969 87.890625 18.5625 87.9375 18.59375 C 88.007812 18.632812 88.007812 18.632812 88.078125 18.675781 C 88.375 18.890625 88.425781 19.070312 88.433594 19.332031 C 88.433594 19.363281 88.433594 19.390625 88.4375 19.425781 C 88.4375 19.535156 88.441406 19.648438 88.441406 19.746094 C 88.445312 19.828125 88.445312 19.902344 88.449219 19.972656 C 88.453125 20.175781 88.457031 20.367188 88.460938 20.566406 C 88.464844 20.769531 88.46875 20.972656 88.472656 21.164062 C 88.484375 21.5625 88.492188 21.957031 88.5 22.351562 C 88.546875 22.328125 88.597656 22.316406 88.644531 22.300781 C 88.863281 22.207031 89.085938 22.125 89.304688 22.042969 C 89.382812 22.015625 89.457031 21.984375 89.53125 21.957031 C 89.992188 21.78125 90.449219 21.613281 90.921875 21.4375 C 91.394531 21.269531 91.855469 21.085938 92.3125 20.902344 C 93.648438 20.355469 94.71875 19.960938 96.535156 19.960938 C 96.640625 19.960938 96.742188 19.960938 96.851562 19.960938 C 97.40625 19.960938 97.824219 19.960938 98.300781 20.113281 C 98.777344 20.355469 98.816406 20.519531 98.816406 20.839844 C 98.816406 20.886719 98.816406 20.921875 98.816406 20.960938 C 98.816406 21.105469 98.816406 21.246094 98.816406 21.386719 C 98.820312 21.492188 98.820312 21.589844 98.820312 21.695312 C 98.820312 21.96875 98.824219 22.242188 98.824219 22.515625 C 98.824219 22.683594 98.824219 22.859375 98.824219 23.027344 C 98.828125 23.566406 98.828125 24.09375 98.828125 24.632812 C 98.832031 25.25 98.832031 25.871094 98.835938 26.492188 C 98.839844 26.964844 98.839844 27.449219 98.839844 27.921875 C 98.839844 28.203125 98.84375 28.488281 98.84375 28.78125 C 98.847656 29.042969 98.847656 29.316406 98.847656 29.582031 C 98.847656 29.683594 98.847656 29.78125 98.847656 29.875 C 98.851562 30.019531 98.851562 30.148438 98.847656 30.28125 C 98.851562 30.339844 98.851562 30.339844 98.851562 30.402344 C 98.847656 30.648438 98.753906 30.789062 98.402344 30.992188 C 97.851562 31.183594 97.222656 31.148438 96.566406 31.140625 C 96.460938 31.140625 96.347656 31.140625 96.238281 31.140625 C 95.40625 31.140625 94.632812 31.101562 93.972656 30.847656 C 93.902344 30.816406 93.824219 30.789062 93.75 30.757812 C 93.667969 30.730469 93.585938 30.695312 93.5 30.65625 C 93.398438 30.613281 93.296875 30.585938 93.191406 30.542969 C 92.96875 30.457031 92.746094 30.363281 92.523438 30.269531 C 92.15625 30.128906 91.78125 29.984375 91.40625 29.84375 C 91.167969 29.753906 90.929688 29.664062 90.6875 29.570312 C 90.617188 29.542969 90.542969 29.507812 90.464844 29.480469 C 90.320312 29.425781 90.179688 29.367188 90.035156 29.316406 C 89.652344 29.164062 89.261719 29.023438 88.871094 28.875 C 88.785156 28.84375 88.695312 28.816406 88.605469 28.769531 C 88.535156 28.75 88.46875 28.722656 88.402344 28.699219 C 88.402344 28.742188 88.402344 28.78125 88.40625 28.820312 C 88.414062 29.21875 88.421875 29.613281 88.425781 30.007812 C 88.429688 30.210938 88.433594 30.410156 88.4375 30.613281 C 88.445312 30.816406 88.445312 31.007812 88.449219 31.210938 C 88.449219 31.28125 88.449219 31.351562 88.453125 31.433594 C 88.46875 31.882812 88.445312 32.242188 87.753906 32.597656 C 87.101562 32.882812 86.382812 32.863281 85.546875 32.863281 C 85.4375 32.863281 85.328125 32.863281 85.210938 32.863281 C 84.867188 32.863281 84.515625 32.863281 84.164062 32.863281 C 83.925781 32.863281 83.683594 32.863281 83.445312 32.851562 C 82.863281 32.851562 82.28125 32.851562 81.699219 32.851562 C 81.699219 32.894531 81.703125 32.921875 81.703125 32.964844 C 81.703125 33.003906 81.703125 33.054688 81.707031 33.097656 C 81.707031 33.167969 81.707031 33.167969 81.710938 33.238281 C 81.691406 33.46875 81.492188 33.601562 81.160156 33.765625 C 80.714844 33.9375 80.226562 33.917969 79.679688 33.90625 C 79.566406 33.917969 79.453125 33.917969 79.335938 33.917969 C 78.96875 33.917969 78.597656 33.917969 78.230469 33.917969 C 77.96875 33.917969 77.714844 33.917969 77.457031 33.917969 C 76.917969 33.917969 76.375 33.917969 75.835938 33.917969 C 75.214844 33.917969 74.59375 33.917969 73.96875 33.917969 C 73.371094 33.917969 72.769531 33.917969 72.171875 33.917969 C 71.914062 33.917969 71.660156 33.917969 71.40625 33.917969 C 71.046875 33.917969 70.691406 33.917969 70.335938 33.917969 C 70.230469 33.917969 70.125 33.917969 70.015625 33.917969 C 69.417969 33.917969 69.074219 33.875 68.632812 33.683594 C 68.332031 33.492188 68.277344 33.328125 68.289062 33.097656 C 68.289062 33.046875 68.292969 33.003906 68.292969 32.953125 C 68.296875 32.921875 68.300781 32.894531 68.300781 32.851562 C 68.234375 32.851562 68.171875 32.851562 68.105469 32.851562 C 66.539062 32.851562 64.976562 32.863281 63.410156 32.863281 C 62.652344 32.863281 61.894531 32.863281 61.136719 32.863281 C 60.476562 32.871094 59.816406 32.871094 59.15625 32.871094 C 58.804688 32.871094 58.457031 32.871094 58.109375 32.871094 C 57.71875 32.871094 57.328125 32.871094 56.9375 32.871094 C 56.820312 32.871094 56.703125 32.871094 56.585938 32.871094 C 55.773438 32.871094 55.359375 32.8125 54.730469 32.5625 C 54.082031 32.207031 54.042969 31.898438 54.054688 31.433594 C 54.054688 31.375 54.054688 31.3125 54.054688 31.253906 C 54.054688 31.078125 54.058594 30.921875 54.058594 30.746094 C 54.0625 30.574219 54.0625 30.402344 54.0625 30.21875 C 54.066406 29.898438 54.066406 29.5625 54.070312 29.226562 C 54.078125 28.851562 54.078125 28.46875 54.082031 28.09375 C 54.085938 27.3125 54.089844 26.535156 54.101562 25.761719 C 53.957031 25.734375 53.957031 25.734375 53.8125 25.714844 C 52.890625 25.570312 51.945312 25.347656 51.398438 24.964844 C 51.203125 24.777344 51.171875 24.621094 51.167969 24.417969 C 51.167969 24.386719 51.164062 24.359375 51.164062 24.3125 C 51.160156 24.214844 51.160156 24.113281 51.160156 24.011719 C 51.160156 23.96875 51.160156 23.941406 51.15625 23.898438 C 51.15625 23.71875 51.152344 23.527344 51.152344 23.347656 C 51.152344 23.148438 51.148438 22.957031 51.140625 22.765625 C 51.136719 22.613281 51.136719 22.472656 51.136719 22.316406 C 51.136719 22.253906 51.132812 22.179688 51.132812 22.109375 C 51.117188 21.695312 51.152344 21.367188 51.800781 21.042969 C 52.035156 20.949219 52.035156 20.949219 52.269531 20.902344 C 52.351562 20.875 52.4375 20.851562 52.527344 20.832031 C 52.613281 20.8125 52.707031 20.792969 52.796875 20.769531 C 52.949219 20.730469 52.949219 20.730469 53.101562 20.6875 C 53.867188 20.484375 53.867188 20.484375 54.101562 20.484375 C 54.097656 20.449219 54.09375 20.402344 54.09375 20.367188 C 54.082031 20.203125 54.078125 20.054688 54.074219 19.890625 C 54.070312 19.828125 54.066406 19.757812 54.0625 19.699219 C 54.039062 19.28125 54.046875 18.917969 54.601562 18.570312 C 55.226562 18.296875 55.707031 18.238281 56.558594 18.238281 C 56.644531 18.238281 56.730469 18.238281 56.824219 18.238281 C 57.121094 18.238281 57.417969 18.238281 57.71875 18.238281 C 57.929688 18.238281 58.144531 18.238281 58.355469 18.238281 C 58.933594 18.238281 59.515625 18.238281 60.09375 18.238281 C 60.699219 18.238281 61.300781 18.238281 61.90625 18.238281 C 63.050781 18.238281 64.199219 18.238281 65.34375 18.238281 C 66.644531 18.238281 67.949219 18.238281 69.253906 18.238281 C 71.933594 18.25 74.617188 18.25 77.300781 18.25 C 77.296875 18.199219 77.296875 18.15625 77.292969 18.105469 C 77.292969 18.046875 77.289062 17.996094 77.285156 17.9375 C 77.285156 17.878906 77.28125 17.8125 77.28125 17.75 C 77.300781 17.605469 77.320312 17.53125 77.523438 17.417969 C 78.140625 17.1875 78.667969 17.203125 79.4375 17.203125 Z M 55.601562 19.128906 C 55.558594 19.261719 55.546875 19.382812 55.546875 19.519531 C 55.546875 19.546875 55.546875 19.582031 55.546875 19.628906 C 55.542969 19.738281 55.542969 19.855469 55.542969 19.972656 C 55.542969 20.09375 55.539062 20.203125 55.539062 20.328125 C 55.535156 20.398438 55.535156 20.46875 55.539062 20.539062 C 55.535156 20.675781 55.519531 20.792969 55.382812 20.921875 C 55.160156 21.015625 54.949219 21.066406 54.679688 21.125 C 54.523438 21.160156 54.523438 21.160156 54.371094 21.195312 C 54.265625 21.21875 54.15625 21.234375 54.050781 21.257812 C 53.839844 21.304688 53.632812 21.351562 53.421875 21.386719 C 53.285156 21.421875 53.285156 21.421875 53.140625 21.449219 C 52.898438 21.507812 52.765625 21.550781 52.597656 21.652344 C 52.554688 21.78125 52.554688 21.78125 52.558594 21.933594 C 52.558594 21.996094 52.558594 22.054688 52.554688 22.109375 C 52.554688 22.179688 52.554688 22.242188 52.554688 22.300781 C 52.554688 22.371094 52.554688 22.433594 52.554688 22.503906 C 52.554688 22.636719 52.554688 22.777344 52.554688 22.910156 C 52.554688 23.078125 52.554688 23.265625 52.550781 23.433594 C 52.550781 23.566406 52.550781 23.707031 52.550781 23.839844 C 52.550781 23.898438 52.550781 23.96875 52.546875 24.03125 C 52.546875 24.121094 52.546875 24.214844 52.550781 24.304688 C 52.550781 24.359375 52.550781 24.40625 52.550781 24.457031 C 52.609375 24.632812 52.726562 24.679688 53 24.777344 C 53.253906 24.851562 53.253906 24.851562 53.535156 24.90625 C 53.636719 24.921875 53.738281 24.953125 53.84375 24.976562 C 53.949219 24.992188 54.054688 25.015625 54.160156 25.035156 C 54.371094 25.085938 54.582031 25.125 54.792969 25.179688 C 54.929688 25.207031 54.929688 25.207031 55.074219 25.238281 C 55.300781 25.296875 55.300781 25.296875 55.5 25.429688 C 55.523438 25.550781 55.523438 25.550781 55.523438 25.691406 C 55.527344 25.773438 55.527344 25.773438 55.527344 25.867188 C 55.527344 25.917969 55.527344 25.976562 55.527344 26.035156 C 55.527344 26.109375 55.527344 26.167969 55.53125 26.226562 C 55.53125 26.371094 55.53125 26.5 55.53125 26.644531 C 55.53125 26.855469 55.535156 27.082031 55.539062 27.292969 C 55.542969 27.75 55.546875 28.214844 55.546875 28.671875 C 55.550781 29.164062 55.554688 29.664062 55.558594 30.160156 C 55.5625 30.382812 55.5625 30.59375 55.570312 30.804688 C 55.570312 30.9375 55.570312 31.078125 55.574219 31.210938 C 55.574219 31.304688 55.574219 31.394531 55.574219 31.484375 C 55.574219 31.566406 55.574219 31.566406 55.574219 31.648438 C 55.574219 31.695312 55.574219 31.75 55.578125 31.800781 C 55.601562 31.921875 55.652344 32.003906 55.800781 32.101562 C 56.050781 32.160156 56.21875 32.160156 56.5 32.160156 C 56.605469 32.160156 56.710938 32.160156 56.824219 32.160156 C 56.941406 32.160156 57.058594 32.160156 57.179688 32.160156 C 57.367188 32.160156 57.367188 32.160156 57.558594 32.160156 C 57.902344 32.160156 58.25 32.160156 58.597656 32.160156 C 58.96875 32.160156 59.34375 32.160156 59.714844 32.160156 C 60.617188 32.160156 61.519531 32.160156 62.421875 32.160156 C 62.847656 32.160156 63.269531 32.160156 63.695312 32.160156 C 65.105469 32.160156 66.515625 32.160156 67.925781 32.160156 C 68.292969 32.160156 68.660156 32.160156 69.023438 32.160156 C 69.117188 32.160156 69.203125 32.160156 69.300781 32.160156 C 70.773438 32.160156 72.25 32.160156 73.722656 32.171875 C 75.238281 32.171875 76.75 32.171875 78.265625 32.171875 C 79.113281 32.171875 79.964844 32.171875 80.816406 32.171875 C 81.539062 32.171875 82.261719 32.171875 82.988281 32.171875 C 83.355469 32.171875 83.726562 32.171875 84.097656 32.171875 C 84.496094 32.171875 84.898438 32.171875 85.296875 32.171875 C 85.410156 32.171875 85.53125 32.171875 85.652344 32.171875 C 85.808594 32.171875 85.808594 32.171875 85.972656 32.171875 C 86.070312 32.171875 86.160156 32.171875 86.257812 32.171875 C 86.582031 32.144531 86.699219 32.097656 86.898438 31.960938 C 86.957031 31.859375 86.957031 31.859375 86.949219 31.742188 C 86.949219 31.679688 86.949219 31.679688 86.953125 31.609375 C 86.953125 31.539062 86.953125 31.539062 86.949219 31.457031 C 86.949219 31.40625 86.953125 31.351562 86.953125 31.304688 C 86.953125 31.121094 86.953125 30.949219 86.949219 30.765625 C 86.953125 30.648438 86.953125 30.515625 86.953125 30.390625 C 86.953125 30.089844 86.953125 29.773438 86.953125 29.472656 C 86.953125 29.21875 86.953125 28.972656 86.953125 28.722656 C 86.953125 28.671875 86.953125 28.671875 86.953125 28.605469 C 86.953125 28.542969 86.953125 28.46875 86.953125 28.398438 C 86.953125 27.722656 86.953125 27.039062 86.949219 26.359375 C 86.949219 25.785156 86.949219 25.195312 86.953125 24.621094 C 86.953125 23.941406 86.953125 23.273438 86.953125 22.589844 C 86.953125 22.527344 86.953125 22.453125 86.953125 22.382812 C 86.953125 22.339844 86.953125 22.3125 86.953125 22.269531 C 86.953125 22.027344 86.953125 21.769531 86.953125 21.519531 C 86.953125 21.21875 86.953125 20.914062 86.953125 20.613281 C 86.953125 20.457031 86.953125 20.304688 86.953125 20.140625 C 86.953125 19.984375 86.953125 19.808594 86.949219 19.636719 C 86.949219 19.59375 86.953125 19.546875 86.953125 19.496094 C 86.953125 19.445312 86.949219 19.402344 86.949219 19.355469 C 86.949219 19.308594 86.949219 19.28125 86.949219 19.246094 C 86.878906 19.089844 86.753906 19.035156 86.5 18.949219 C 86.253906 18.917969 86.253906 18.917969 85.976562 18.925781 C 85.8125 18.917969 85.8125 18.917969 85.652344 18.917969 C 85.535156 18.917969 85.417969 18.917969 85.296875 18.925781 C 85.171875 18.917969 85.046875 18.917969 84.921875 18.917969 C 84.574219 18.917969 84.226562 18.917969 83.878906 18.917969 C 83.507812 18.917969 83.136719 18.917969 82.761719 18.917969 C 82.03125 18.917969 81.296875 18.917969 80.570312 18.917969 C 79.972656 18.917969 79.378906 18.917969 78.785156 18.917969 C 78.703125 18.917969 78.617188 18.917969 78.53125 18.917969 C 78.359375 18.917969 78.1875 18.917969 78.011719 18.917969 C 76.40625 18.917969 74.796875 18.917969 73.1875 18.917969 C 71.804688 18.925781 70.421875 18.925781 69.039062 18.917969 C 67.433594 18.917969 65.832031 18.917969 64.226562 18.917969 C 64.054688 18.917969 63.882812 18.917969 63.714844 18.917969 C 63.628906 18.917969 63.542969 18.917969 63.460938 18.917969 C 62.867188 18.917969 62.273438 18.917969 61.679688 18.917969 C 60.957031 18.917969 60.230469 18.917969 59.511719 18.917969 C 59.140625 18.917969 58.773438 18.917969 58.402344 18.917969 C 58.003906 18.917969 57.601562 18.917969 57.203125 18.925781 C 57.085938 18.917969 56.96875 18.917969 56.847656 18.917969 C 56.742188 18.917969 56.632812 18.917969 56.523438 18.925781 C 56.386719 18.925781 56.386719 18.925781 56.246094 18.925781 C 55.917969 18.960938 55.800781 19.007812 55.601562 19.128906 Z M 55.601562 19.128906 "/>
<path style=" stroke:none;fill-rule:nonzero;fill:rgb(27.058825%,13.725491%,15.294118%);fill-opacity:1;" d="M 97.402344 20.671875 C 97.402344 23.894531 97.402344 27.109375 97.402344 30.421875 C 95.21875 30.421875 95.21875 30.421875 94.191406 30.007812 C 93.746094 29.828125 93.289062 29.640625 92.816406 29.480469 C 92.109375 29.21875 91.40625 28.953125 90.707031 28.6875 C 90.351562 28.546875 89.992188 28.414062 89.632812 28.273438 C 89.566406 28.257812 89.5 28.222656 89.433594 28.203125 C 89.371094 28.175781 89.304688 28.152344 89.242188 28.132812 C 89.191406 28.113281 89.132812 28.09375 89.078125 28.058594 C 88.894531 27.996094 88.894531 27.996094 88.644531 27.929688 C 88.285156 27.757812 88.324219 27.617188 88.320312 27.382812 C 88.316406 27.34375 88.316406 27.304688 88.3125 27.25 C 88.308594 27.109375 88.304688 26.964844 88.300781 26.828125 C 88.300781 26.726562 88.296875 26.628906 88.292969 26.523438 C 88.289062 26.308594 88.285156 26.109375 88.285156 25.894531 C 88.28125 25.632812 88.273438 25.359375 88.257812 25.097656 C 88.25 24.882812 88.25 24.679688 88.25 24.476562 C 88.246094 24.375 88.242188 24.277344 88.238281 24.171875 C 88.191406 23.375 88.191406 23.375 88.695312 23.109375 C 88.984375 22.980469 89.285156 22.875 89.613281 22.789062 C 89.929688 22.683594 90.222656 22.574219 90.515625 22.460938 C 90.636719 22.421875 90.753906 22.371094 90.871094 22.328125 C 91.355469 22.160156 91.824219 21.980469 92.300781 21.792969 C 95.226562 20.671875 95.226562 20.671875 97.402344 20.671875 Z M 97.402344 20.671875 "/>
<path style=" stroke:none;fill-rule:nonzero;fill:rgb(97.647059%,97.647059%,97.647059%);fill-opacity:1;" d="M 63.898438 46.757812 C 65.617188 46.757812 67.332031 46.757812 69.101562 46.757812 C 70.101562 47.851562 71.097656 48.933594 72.09375 50.027344 C 72.140625 50.078125 72.191406 50.132812 72.238281 50.179688 C 72.925781 50.941406 73.613281 51.703125 74.296875 52.449219 C 74.480469 52.332031 74.609375 52.203125 74.742188 52.074219 C 74.789062 52.023438 74.835938 51.976562 74.886719 51.914062 C 74.96875 51.832031 74.96875 51.832031 75.050781 51.75 C 75.109375 51.691406 75.164062 51.628906 75.222656 51.570312 C 76.152344 50.597656 77.0625 49.625 77.976562 48.640625 C 78.140625 48.46875 78.304688 48.292969 78.46875 48.125 C 78.582031 47.992188 78.699219 47.875 78.816406 47.746094 C 78.886719 47.671875 78.957031 47.601562 79.03125 47.519531 C 79.0625 47.484375 79.09375 47.457031 79.125 47.414062 C 79.335938 47.195312 79.5625 46.980469 79.800781 46.757812 C 81.386719 46.757812 82.96875 46.757812 84.597656 46.757812 C 84.597656 46.878906 84.597656 47.007812 84.597656 47.136719 C 84.445312 47.199219 84.296875 47.195312 84.078125 47.195312 C 83.527344 47.222656 83.179688 47.316406 82.820312 47.519531 C 82.523438 47.839844 82.585938 48.230469 82.582031 48.578125 C 82.582031 48.648438 82.582031 48.648438 82.582031 48.722656 C 82.578125 48.886719 82.578125 49.050781 82.578125 49.207031 C 82.578125 49.269531 82.578125 49.324219 82.574219 49.382812 C 82.574219 49.671875 82.574219 49.96875 82.570312 50.261719 C 82.570312 50.5625 82.566406 50.871094 82.5625 51.171875 C 82.558594 51.40625 82.558594 51.640625 82.558594 51.871094 C 82.558594 51.984375 82.558594 52.09375 82.554688 52.203125 C 82.554688 52.367188 82.554688 52.523438 82.554688 52.667969 C 82.554688 52.722656 82.550781 52.761719 82.550781 52.8125 C 82.554688 53.140625 82.6875 53.425781 83 53.714844 C 83.480469 53.898438 84.191406 53.90625 84.800781 53.949219 C 84.800781 54.070312 84.800781 54.191406 84.800781 54.320312 C 82.523438 54.320312 80.246094 54.320312 77.902344 54.320312 C 77.902344 54.199219 77.902344 54.070312 77.902344 53.949219 C 78 53.9375 78.105469 53.925781 78.207031 53.925781 C 78.347656 53.917969 78.484375 53.898438 78.621094 53.890625 C 78.6875 53.890625 78.753906 53.878906 78.824219 53.878906 C 79.328125 53.835938 79.59375 53.761719 79.898438 53.570312 C 80.105469 53.269531 80.125 52.996094 80.121094 52.679688 C 80.121094 52.632812 80.121094 52.59375 80.121094 52.53125 C 80.121094 52.367188 80.121094 52.203125 80.117188 52.046875 C 80.117188 51.921875 80.117188 51.8125 80.117188 51.703125 C 80.117188 51.394531 80.113281 51.09375 80.113281 50.800781 C 80.109375 50.480469 80.109375 50.179688 80.109375 49.875 C 80.105469 49.269531 80.105469 48.671875 80.097656 48.066406 C 79.746094 48.386719 79.410156 48.710938 79.101562 49.050781 C 79.027344 49.125 78.949219 49.195312 78.878906 49.277344 C 78.820312 49.339844 78.820312 49.339844 78.757812 49.398438 C 77.476562 50.753906 76.1875 52.105469 74.898438 53.453125 C 74.867188 53.488281 74.832031 53.523438 74.800781 53.5625 C 74.734375 53.632812 74.664062 53.703125 74.597656 53.773438 C 74.394531 53.988281 74.195312 54.199219 74 54.414062 C 73.800781 54.414062 73.605469 54.414062 73.402344 54.414062 C 73.125 54.171875 72.871094 53.925781 72.675781 53.664062 C 72.570312 53.535156 72.433594 53.414062 72.296875 53.289062 C 72.203125 53.199219 72.121094 53.105469 72.050781 53.015625 C 71.953125 52.882812 71.84375 52.773438 71.710938 52.652344 C 71.476562 52.441406 71.300781 52.214844 71.125 51.992188 C 71.007812 51.847656 70.863281 51.738281 70.699219 51.609375 C 70.617188 51.515625 70.539062 51.429688 70.464844 51.324219 C 70.277344 51.09375 70.074219 50.871094 69.851562 50.644531 C 69.644531 50.433594 69.449219 50.21875 69.25 50 C 68.988281 49.714844 68.722656 49.433594 68.4375 49.148438 C 68.246094 48.945312 68.070312 48.742188 67.886719 48.539062 C 67.847656 48.503906 67.808594 48.457031 67.773438 48.421875 C 67.683594 48.316406 67.589844 48.21875 67.5 48.113281 C 67.496094 48.765625 67.492188 49.410156 67.492188 50.070312 C 67.492188 50.363281 67.488281 50.667969 67.488281 50.96875 C 67.484375 51.265625 67.484375 51.558594 67.484375 51.847656 C 67.484375 51.953125 67.476562 52.0625 67.476562 52.175781 C 67.476562 52.335938 67.476562 52.488281 67.476562 52.652344 C 67.476562 52.691406 67.472656 52.742188 67.472656 52.785156 C 67.476562 53.117188 67.503906 53.5 68 53.757812 C 68.542969 53.867188 69.117188 53.917969 69.699219 53.949219 C 69.699219 54.070312 69.699219 54.191406 69.699219 54.320312 C 67.722656 54.320312 65.742188 54.320312 63.699219 54.320312 C 63.699219 54.199219 63.699219 54.070312 63.699219 53.949219 C 63.804688 53.9375 63.902344 53.925781 64.011719 53.925781 C 64.144531 53.917969 64.28125 53.898438 64.417969 53.890625 C 64.519531 53.890625 64.519531 53.890625 64.625 53.878906 C 65.125 53.835938 65.382812 53.757812 65.699219 53.570312 C 65.863281 53.414062 65.925781 53.289062 65.925781 53.105469 C 65.929688 53.070312 65.929688 53.015625 65.929688 52.976562 C 65.929688 52.925781 65.929688 52.878906 65.925781 52.824219 C 65.929688 52.773438 65.929688 52.722656 65.929688 52.664062 C 65.929688 52.488281 65.929688 52.320312 65.929688 52.144531 C 65.929688 52.023438 65.929688 51.914062 65.929688 51.789062 C 65.929688 51.539062 65.929688 51.285156 65.929688 51.027344 C 65.925781 50.738281 65.925781 50.453125 65.929688 50.160156 C 65.929688 49.886719 65.929688 49.601562 65.929688 49.324219 C 65.929688 49.207031 65.929688 49.085938 65.929688 48.96875 C 65.929688 48.804688 65.929688 48.632812 65.925781 48.46875 C 65.929688 48.421875 65.929688 48.367188 65.929688 48.316406 C 65.929688 47.828125 65.929688 47.828125 65.523438 47.398438 C 65.054688 47.246094 64.558594 47.210938 64 47.183594 C 63.96875 47.164062 63.933594 47.152344 63.898438 47.136719 C 63.898438 47.007812 63.898438 46.890625 63.898438 46.757812 Z M 63.898438 46.757812 "/>
<path style=" stroke:none;fill-rule:nonzero;fill:rgb(98.039216%,98.039216%,98.039216%);fill-opacity:1;" d="M 127.398438 46.199219 C 127.429688 47.410156 127.46875 48.601562 127.5 49.835938 C 127.796875 49.714844 128.09375 49.597656 128.398438 49.460938 C 129.640625 49.109375 131.074219 48.886719 132.539062 49.039062 C 133.523438 49.167969 134.3125 49.339844 134.902344 49.742188 C 135.226562 50.027344 135.3125 50.289062 135.316406 50.609375 C 135.320312 50.667969 135.320312 50.726562 135.320312 50.800781 C 135.324219 50.828125 135.324219 50.859375 135.324219 50.890625 C 135.324219 50.992188 135.328125 51.09375 135.328125 51.191406 C 135.335938 51.488281 135.34375 51.773438 135.347656 52.058594 C 135.351562 52.238281 135.355469 52.40625 135.359375 52.59375 C 135.359375 52.652344 135.363281 52.722656 135.363281 52.796875 C 135.363281 52.882812 135.367188 52.976562 135.371094 53.070312 C 135.371094 53.152344 135.371094 53.152344 135.371094 53.226562 C 135.40625 53.429688 135.480469 53.632812 135.722656 53.796875 C 135.976562 53.878906 136.21875 53.890625 136.519531 53.90625 C 136.628906 53.917969 136.734375 53.925781 136.847656 53.925781 C 136.929688 53.9375 137.015625 53.9375 137.101562 53.949219 C 137.101562 54.070312 137.101562 54.191406 137.101562 54.320312 C 135.21875 54.320312 133.339844 54.320312 131.402344 54.320312 C 131.402344 54.199219 131.402344 54.070312 131.402344 53.949219 C 131.863281 53.917969 132.320312 53.890625 132.800781 53.855469 C 133.082031 53.523438 133.144531 53.238281 133.140625 52.878906 C 133.140625 52.824219 133.140625 52.773438 133.140625 52.722656 C 133.140625 52.609375 133.140625 52.5 133.140625 52.390625 C 133.140625 52.214844 133.140625 52.058594 133.140625 51.882812 C 133.222656 50.753906 133.222656 50.753906 132.199219 49.796875 C 131.902344 49.695312 131.902344 49.695312 131.601562 49.65625 C 131.535156 49.644531 131.476562 49.632812 131.414062 49.625 C 130.410156 49.550781 129.523438 49.671875 128.703125 49.945312 C 128.070312 50.203125 127.652344 50.527344 127.570312 50.917969 C 127.558594 51.082031 127.554688 51.253906 127.554688 51.429688 C 127.554688 51.488281 127.554688 51.546875 127.554688 51.609375 C 127.554688 51.738281 127.554688 51.871094 127.554688 52.003906 C 127.554688 52.175781 127.554688 52.335938 127.550781 52.511719 C 127.550781 52.632812 127.550781 52.761719 127.550781 52.894531 C 127.550781 52.988281 127.546875 53.078125 127.546875 53.167969 C 127.546875 53.226562 127.546875 53.28125 127.550781 53.34375 C 127.550781 53.390625 127.550781 53.429688 127.550781 53.484375 C 127.613281 53.652344 127.746094 53.734375 128 53.855469 C 128.300781 53.898438 128.300781 53.898438 128.625 53.917969 C 128.785156 53.925781 128.785156 53.925781 128.949219 53.9375 C 129.035156 53.9375 129.117188 53.9375 129.203125 53.949219 C 129.203125 54.070312 129.203125 54.191406 129.203125 54.320312 C 127.320312 54.320312 125.4375 54.320312 123.5 54.320312 C 123.5 54.199219 123.5 54.070312 123.5 53.949219 C 123.585938 53.9375 123.664062 53.9375 123.753906 53.925781 C 123.859375 53.917969 123.96875 53.917969 124.082031 53.90625 C 124.191406 53.898438 124.296875 53.890625 124.410156 53.890625 C 124.71875 53.855469 124.71875 53.855469 125 53.757812 C 125.175781 53.605469 125.222656 53.460938 125.226562 53.289062 C 125.226562 53.238281 125.226562 53.1875 125.226562 53.152344 C 125.226562 53.097656 125.226562 53.046875 125.226562 52.988281 C 125.226562 52.9375 125.226562 52.882812 125.226562 52.824219 C 125.226562 52.640625 125.226562 52.46875 125.226562 52.285156 C 125.226562 52.15625 125.226562 52.035156 125.226562 51.914062 C 125.226562 51.648438 125.226562 51.382812 125.226562 51.121094 C 125.222656 50.820312 125.226562 50.515625 125.226562 50.207031 C 125.226562 49.945312 125.226562 49.683594 125.226562 49.421875 C 125.226562 49.269531 125.226562 49.113281 125.226562 48.957031 C 125.28125 48.015625 125.28125 48.015625 125 47.082031 C 124.671875 46.980469 124.464844 46.972656 124.082031 46.9375 C 123.917969 46.925781 123.917969 46.925781 123.753906 46.921875 C 123.628906 46.910156 123.628906 46.910156 123.5 46.898438 C 123.5 46.78125 123.5 46.652344 123.5 46.523438 C 123.960938 46.484375 124.417969 46.433594 124.875 46.378906 C 125.03125 46.375 125.1875 46.351562 125.347656 46.34375 C 125.570312 46.316406 125.792969 46.292969 126.019531 46.269531 C 126.089844 46.261719 126.15625 46.261719 126.226562 46.25 C 126.636719 46.210938 126.972656 46.199219 127.398438 46.199219 Z M 127.398438 46.199219 "/>
<path style=" stroke:none;fill-rule:nonzero;fill:rgb(97.254902%,97.254902%,97.254902%);fill-opacity:1;" d="M 26.5 47.328125 C 26.628906 47.136719 26.765625 46.949219 26.902344 46.757812 C 27.132812 46.757812 27.363281 46.757812 27.597656 46.757812 C 27.722656 47.527344 27.839844 48.277344 27.796875 49.050781 C 27.503906 49.050781 27.203125 49.050781 26.902344 49.050781 C 26.878906 49.003906 26.847656 48.96875 26.824219 48.921875 C 26.421875 48.328125 25.78125 47.839844 24.585938 47.527344 C 23.132812 47.199219 21.632812 47.125 20.101562 47.363281 C 18.886719 47.601562 17.9375 48.066406 17.414062 48.621094 C 16.953125 49.160156 16.757812 49.683594 16.703125 50.261719 C 16.695312 50.289062 16.691406 50.335938 16.6875 50.363281 C 16.625 51.027344 16.730469 51.75 17.300781 52.359375 C 17.339844 52.40625 17.378906 52.449219 17.421875 52.488281 C 17.925781 53.007812 18.664062 53.441406 19.796875 53.664062 C 20.5625 53.785156 21.277344 53.835938 22.082031 53.828125 C 22.238281 53.828125 22.238281 53.828125 22.398438 53.828125 C 23.789062 53.816406 24.835938 53.617188 25.8125 53.152344 C 26.382812 52.832031 26.695312 52.5 27 52.121094 C 27.066406 52.046875 27.132812 51.976562 27.199219 51.894531 C 27.53125 51.894531 27.863281 51.894531 28.199219 51.894531 C 28.199219 52.691406 28.199219 53.488281 28.199219 54.320312 C 27.902344 54.320312 27.605469 54.320312 27.300781 54.320312 C 27.136719 54.089844 26.96875 53.855469 26.800781 53.625 C 26.664062 53.664062 26.523438 53.714844 26.382812 53.761719 C 24.40625 54.414062 21.980469 54.554688 19.621094 54.382812 C 18.058594 54.234375 16.789062 53.867188 15.699219 53.34375 C 15.640625 53.308594 15.582031 53.289062 15.519531 53.261719 C 14.8125 52.90625 14.242188 52.40625 14 51.941406 C 13.957031 51.871094 13.957031 51.871094 13.914062 51.800781 C 13.28125 50.585938 13.710938 49.324219 15.09375 48.257812 C 16.242188 47.46875 17.894531 46.949219 19.859375 46.71875 C 22.1875 46.515625 24.523438 46.707031 26.5 47.328125 Z M 26.5 47.328125 "/>
<path style=" stroke:none;fill-rule:nonzero;fill:rgb(97.647059%,97.647059%,97.647059%);fill-opacity:1;" d="M 94.300781 49.371094 C 95.105469 49.753906 95.144531 50.144531 95.140625 50.644531 C 95.140625 50.753906 95.140625 50.859375 95.144531 50.964844 C 95.148438 51.183594 95.148438 51.40625 95.148438 51.628906 C 95.152344 51.894531 95.152344 52.15625 95.15625 52.40625 C 95.160156 52.511719 95.15625 52.609375 95.15625 52.714844 C 95.160156 53.058594 95.207031 53.351562 95.5 53.664062 C 95.53125 53.714844 95.566406 53.757812 95.597656 53.808594 C 96.15625 53.828125 96.527344 53.828125 97 53.664062 C 97.066406 53.664062 97.128906 53.664062 97.203125 53.664062 C 97.265625 53.757812 97.332031 53.84375 97.402344 53.949219 C 96.695312 54.261719 96.078125 54.425781 95.089844 54.4375 C 94.496094 54.425781 94.148438 54.414062 93.699219 54.222656 C 93.296875 53.976562 93.136719 53.746094 93.101562 53.429688 C 93.054688 53.460938 93.015625 53.488281 92.972656 53.511719 C 92.273438 53.949219 91.511719 54.28125 90.347656 54.390625 C 89.394531 54.453125 88.4375 54.464844 87.601562 54.222656 C 87.03125 54.019531 86.648438 53.785156 86.550781 53.441406 C 86.515625 52.976562 86.679688 52.679688 87.367188 52.320312 C 88.34375 51.882812 89.71875 51.628906 90.949219 51.375 C 91.179688 51.335938 91.410156 51.285156 91.640625 51.238281 C 91.789062 51.203125 91.9375 51.171875 92.085938 51.144531 C 92.15625 51.132812 92.222656 51.121094 92.296875 51.101562 C 92.777344 51.011719 92.777344 51.011719 93 51.011719 C 92.976562 50.859375 92.949219 50.707031 92.917969 50.554688 C 92.914062 50.515625 92.90625 50.476562 92.898438 50.433594 C 92.835938 50.132812 92.757812 49.859375 92.253906 49.632812 C 91.777344 49.492188 91.484375 49.453125 90.898438 49.453125 C 90.714844 49.453125 90.714844 49.453125 90.53125 49.453125 C 90.222656 49.460938 90.054688 49.480469 89.800781 49.5625 C 89.59375 49.695312 89.472656 49.824219 89.359375 49.980469 C 89.210938 50.171875 89.015625 50.34375 88.699219 50.492188 C 88.523438 50.503906 88.34375 50.503906 88.167969 50.503906 C 88.074219 50.503906 87.972656 50.503906 87.875 50.503906 C 87.558594 50.492188 87.429688 50.453125 87.199219 50.351562 C 87.039062 50.132812 86.988281 49.875 87.179688 49.65625 C 87.644531 49.3125 88.445312 49.179688 89.234375 49.078125 C 90.847656 48.90625 92.929688 48.894531 94.300781 49.371094 Z M 94.300781 49.371094 "/>
<path style=" stroke:none;fill-rule:nonzero;fill:rgb(97.647059%,97.647059%,97.647059%);fill-opacity:1;" d="M 40.699219 48.996094 C 40.765625 49.277344 40.832031 49.550781 40.898438 49.835938 C 41.109375 49.847656 41.109375 49.847656 41.257812 49.777344 C 41.328125 49.734375 41.394531 49.707031 41.460938 49.671875 C 42.550781 49.21875 43.929688 48.976562 45.386719 48.984375 C 46.402344 49.027344 47.339844 49.167969 48.085938 49.503906 C 48.816406 49.917969 48.84375 50.421875 48.839844 50.941406 C 48.839844 51.039062 48.839844 51.144531 48.84375 51.242188 C 48.847656 51.511719 48.847656 51.761719 48.851562 52.011719 C 48.851562 52.238281 48.855469 52.449219 48.855469 52.667969 C 48.859375 52.773438 48.859375 52.878906 48.859375 52.976562 C 48.855469 53.414062 48.855469 53.414062 49.199219 53.808594 C 49.464844 53.898438 49.753906 53.917969 50.074219 53.949219 C 50.15625 53.960938 50.234375 53.972656 50.320312 53.976562 C 50.378906 53.976562 50.4375 53.988281 50.5 53.988281 C 50.5 54.101562 50.5 54.210938 50.5 54.320312 C 48.683594 54.320312 46.871094 54.320312 45 54.320312 C 45 54.210938 45 54.101562 45 53.988281 C 45.082031 53.988281 45.164062 53.976562 45.253906 53.972656 C 45.359375 53.960938 45.46875 53.949219 45.578125 53.9375 C 45.6875 53.925781 45.796875 53.917969 45.90625 53.898438 C 46.242188 53.84375 46.335938 53.808594 46.5 53.664062 C 46.59375 53.488281 46.617188 53.332031 46.617188 53.15625 C 46.621094 53.105469 46.621094 53.046875 46.621094 52.996094 C 46.625 52.9375 46.625 52.878906 46.625 52.824219 C 46.625 52.734375 46.625 52.734375 46.628906 52.632812 C 46.628906 52.511719 46.628906 52.378906 46.628906 52.257812 C 46.632812 52.09375 46.636719 51.929688 46.640625 51.773438 C 46.640625 51.609375 46.640625 51.457031 46.644531 51.296875 C 46.644531 51.214844 46.644531 51.214844 46.648438 51.121094 C 46.644531 50.636719 46.519531 50.160156 45.796875 49.796875 C 45.042969 49.585938 44.253906 49.550781 43.40625 49.65625 C 42.566406 49.789062 42 50.039062 41.519531 50.371094 C 41.15625 50.738281 41.167969 51.09375 41.167969 51.488281 C 41.167969 51.546875 41.164062 51.597656 41.164062 51.65625 C 41.164062 51.789062 41.164062 51.914062 41.164062 52.035156 C 41.164062 52.195312 41.160156 52.347656 41.15625 52.511719 C 41.15625 52.664062 41.15625 52.8125 41.15625 52.964844 C 41.152344 53.023438 41.152344 53.078125 41.152344 53.140625 C 41.152344 53.535156 41.152344 53.535156 41.601562 53.855469 C 41.902344 53.90625 41.902344 53.90625 42.222656 53.917969 C 42.386719 53.925781 42.386719 53.925781 42.550781 53.9375 C 42.632812 53.9375 42.714844 53.9375 42.800781 53.949219 C 42.800781 54.070312 42.800781 54.191406 42.800781 54.320312 C 40.953125 54.320312 39.101562 54.320312 37.199219 54.320312 C 37.199219 53.988281 37.199219 53.988281 37.300781 53.949219 C 37.476562 53.925781 37.65625 53.917969 37.832031 53.90625 C 38.171875 53.878906 38.371094 53.855469 38.664062 53.773438 C 38.9375 53.5625 38.910156 53.308594 38.914062 53.078125 C 38.914062 53.015625 38.914062 52.941406 38.914062 52.882812 C 38.914062 52.824219 38.914062 52.75 38.914062 52.679688 C 38.917969 52.621094 38.917969 52.550781 38.917969 52.476562 C 38.917969 52.335938 38.917969 52.195312 38.917969 52.046875 C 38.917969 51.859375 38.917969 51.679688 38.921875 51.5 C 38.921875 51.355469 38.921875 51.214844 38.921875 51.074219 C 38.921875 51 38.921875 50.929688 38.921875 50.871094 C 38.925781 50.765625 38.921875 50.679688 38.921875 50.574219 C 38.921875 50.527344 38.921875 50.476562 38.921875 50.417969 C 38.890625 50.203125 38.839844 50 38.523438 49.847656 C 38.25 49.789062 38.03125 49.765625 37.722656 49.765625 C 37.574219 49.753906 37.574219 49.753906 37.429688 49.753906 C 37.351562 49.742188 37.277344 49.742188 37.199219 49.742188 C 37.199219 49.625 37.199219 49.503906 37.199219 49.371094 C 37.667969 49.324219 38.132812 49.269531 38.601562 49.21875 C 38.757812 49.195312 38.914062 49.179688 39.074219 49.160156 C 39.300781 49.136719 39.527344 49.109375 39.761719 49.078125 C 39.828125 49.078125 39.898438 49.066406 39.976562 49.054688 C 40.476562 48.996094 40.476562 48.996094 40.699219 48.996094 Z M 40.699219 48.996094 "/>
<path style=" stroke:none;fill-rule:nonzero;fill:rgb(98.039216%,98.039216%,98.039216%);fill-opacity:1;" d="M 101.5 48.996094 C 101.644531 49.230469 101.640625 49.460938 101.671875 49.695312 C 101.679688 49.835938 101.679688 49.835938 101.800781 49.933594 C 101.847656 49.90625 101.898438 49.875 101.949219 49.859375 C 103.050781 49.300781 104.371094 49.015625 105.996094 48.976562 C 107.210938 48.996094 108.164062 49.179688 109.023438 49.574219 C 109.5625 49.96875 109.65625 50.363281 109.648438 50.828125 C 109.648438 50.929688 109.648438 51.027344 109.652344 51.132812 C 109.652344 51.3125 109.65625 51.5 109.65625 51.667969 C 109.65625 51.964844 109.65625 52.25 109.660156 52.53125 C 109.660156 52.632812 109.660156 52.734375 109.660156 52.824219 C 109.664062 53.15625 109.671875 53.460938 110 53.757812 C 110.378906 53.917969 110.800781 53.925781 111.300781 53.949219 C 111.300781 54.070312 111.300781 54.191406 111.300781 54.320312 C 109.488281 54.320312 107.667969 54.320312 105.800781 54.320312 C 105.800781 54.199219 105.800781 54.070312 105.800781 53.949219 C 106.261719 53.917969 106.722656 53.890625 107.199219 53.855469 C 107.457031 53.5 107.542969 53.210938 107.539062 52.84375 C 107.539062 52.796875 107.539062 52.742188 107.539062 52.691406 C 107.539062 52.582031 107.535156 52.476562 107.535156 52.367188 C 107.53125 52.203125 107.535156 52.046875 107.535156 51.894531 C 107.617188 50.75 107.617188 50.75 106.558594 49.765625 C 105.925781 49.597656 105.316406 49.5625 104.601562 49.601562 C 103.628906 49.742188 102.953125 49.933594 102.417969 50.335938 C 102.015625 50.707031 101.957031 51.011719 101.960938 51.429688 C 101.960938 51.515625 101.960938 51.515625 101.960938 51.597656 C 101.957031 51.71875 101.960938 51.84375 101.960938 51.964844 C 101.960938 52.15625 101.960938 52.335938 101.957031 52.523438 C 101.960938 52.640625 101.960938 52.761719 101.960938 52.878906 C 101.960938 52.9375 101.957031 52.988281 101.957031 53.046875 C 101.964844 53.332031 101.984375 53.554688 102.300781 53.808594 C 102.714844 53.90625 103.144531 53.917969 103.597656 53.949219 C 103.699219 53.988281 103.699219 53.988281 103.699219 54.320312 C 101.851562 54.320312 100.003906 54.320312 98.097656 54.320312 C 98.097656 54.199219 98.097656 54.070312 98.097656 53.949219 C 98.191406 53.949219 98.191406 53.949219 98.277344 53.9375 C 98.753906 53.925781 99.117188 53.90625 99.5 53.757812 C 99.738281 53.59375 99.726562 53.441406 99.730469 53.25 C 99.730469 53.210938 99.730469 53.179688 99.730469 53.152344 C 99.730469 53.035156 99.730469 52.925781 99.730469 52.824219 C 99.730469 52.742188 99.730469 52.667969 99.734375 52.59375 C 99.734375 52.441406 99.734375 52.277344 99.734375 52.121094 C 99.734375 51.921875 99.734375 51.71875 99.738281 51.515625 C 99.738281 51.367188 99.738281 51.203125 99.738281 51.050781 C 99.738281 50.96875 99.738281 50.898438 99.738281 50.828125 C 99.742188 50.71875 99.738281 50.617188 99.738281 50.515625 C 99.738281 50.453125 99.738281 50.394531 99.738281 50.335938 C 99.691406 50.144531 99.601562 50.015625 99.398438 49.835938 C 99.085938 49.789062 99.085938 49.789062 98.738281 49.777344 C 98.101562 49.742188 98.101562 49.742188 98 49.707031 C 97.996094 49.597656 97.996094 49.480469 98 49.371094 C 98.464844 49.324219 98.933594 49.269531 99.398438 49.21875 C 99.558594 49.195312 99.71875 49.179688 99.875 49.160156 C 100.105469 49.136719 100.332031 49.109375 100.558594 49.078125 C 100.628906 49.078125 100.703125 49.066406 100.773438 49.054688 C 101.277344 48.996094 101.277344 48.996094 101.5 48.996094 Z M 101.5 48.996094 "/>
<path style=" stroke:none;fill-rule:nonzero;fill:rgb(97.647059%,97.647059%,97.647059%);fill-opacity:1;" d="M 57.550781 48.984375 C 58.789062 48.96875 59.964844 49.125 60.902344 49.515625 C 61.566406 49.804688 61.96875 50.191406 62.023438 50.617188 C 62.023438 50.679688 62.027344 50.738281 62.027344 50.800781 C 62.027344 50.835938 62.03125 50.871094 62.03125 50.898438 C 62.035156 50.992188 62.035156 50.992188 62 51.144531 C 61.632812 51.265625 61.449219 51.253906 61.003906 51.253906 C 60.933594 51.253906 60.867188 51.253906 60.792969 51.253906 C 60.558594 51.253906 60.328125 51.253906 60.097656 51.242188 C 59.933594 51.242188 59.773438 51.242188 59.613281 51.242188 C 59.1875 51.242188 58.765625 51.242188 58.34375 51.242188 C 57.90625 51.242188 57.476562 51.242188 57.042969 51.242188 C 56.199219 51.242188 55.347656 51.242188 54.5 51.242188 C 54.496094 51.375 54.492188 51.515625 54.488281 51.65625 C 54.488281 51.703125 54.488281 51.738281 54.484375 51.785156 C 54.476562 52.429688 54.914062 53.058594 55.898438 53.523438 C 56.742188 53.828125 57.652344 53.90625 58.703125 53.855469 C 59.578125 53.757812 60.269531 53.554688 60.875 53.25 C 61.101562 53.15625 61.101562 53.15625 61.308594 53.152344 C 61.550781 53.210938 61.714844 53.289062 61.898438 53.390625 C 61.503906 53.828125 60.519531 54.058594 59.648438 54.25 C 58.332031 54.507812 56.617188 54.523438 55.28125 54.292969 C 54.089844 54.03125 53.1875 53.675781 52.554688 53.128906 C 52.523438 53.097656 52.492188 53.078125 52.457031 53.046875 C 52.0625 52.679688 51.964844 52.332031 51.980469 51.921875 C 51.980469 51.882812 51.984375 51.847656 51.984375 51.8125 C 51.988281 51.703125 51.992188 51.585938 52 51.476562 C 52 51.417969 52.003906 51.367188 52.003906 51.3125 C 52.070312 50.644531 52.808594 50.089844 53.8125 49.644531 C 54.890625 49.21875 56.171875 49.050781 57.550781 48.984375 Z M 57.550781 48.984375 "/>
<path style=" stroke:none;fill-rule:nonzero;fill:rgb(81.568629%,18.039216%,25.490198%);fill-opacity:1;" d="M 81.082031 22.078125 C 81.722656 22.328125 82.3125 22.71875 82.429688 23.109375 C 82.441406 23.21875 82.445312 23.335938 82.441406 23.445312 C 82.441406 23.484375 82.441406 23.527344 82.441406 23.566406 C 82.425781 23.847656 82.351562 24.074219 82 24.3125 C 81.960938 24.347656 81.914062 24.375 81.871094 24.40625 C 81.265625 24.824219 80.476562 25.050781 79.457031 25.1875 C 78.3125 25.25 77.257812 25.15625 76.328125 24.832031 C 75.527344 24.488281 75.066406 24.113281 74.972656 23.609375 C 74.941406 23.078125 75.1875 22.695312 75.914062 22.289062 C 77.300781 21.625 79.464844 21.542969 81.082031 22.078125 Z M 81.082031 22.078125 "/>
<path style=" stroke:none;fill-rule:nonzero;fill:rgb(97.647059%,97.647059%,97.647059%);fill-opacity:1;" d="M 122.011719 49.453125 C 122.289062 49.585938 122.4375 49.707031 122.476562 49.898438 C 122.402344 50.078125 122.320312 50.160156 121.992188 50.261719 C 121.621094 50.34375 121.292969 50.351562 120.898438 50.300781 C 120.492188 50.191406 120.183594 50.039062 119.902344 49.859375 C 119.535156 49.65625 119.148438 49.574219 118.59375 49.542969 C 117.789062 49.53125 117.058594 49.574219 116.417969 49.816406 C 115.996094 50.015625 115.796875 50.273438 115.601562 50.535156 C 115.566406 50.585938 115.535156 50.625 115.496094 50.667969 C 115.339844 50.917969 115.367188 51.164062 115.371094 51.429688 C 115.371094 51.515625 115.367188 51.609375 115.363281 51.710938 C 115.359375 52.394531 115.574219 52.988281 116.542969 53.523438 C 117.355469 53.835938 118.164062 53.898438 119.199219 53.855469 C 120.191406 53.757812 121 53.542969 121.699219 53.199219 C 121.898438 53.199219 121.898438 53.199219 122.160156 53.308594 C 122.402344 53.429688 122.402344 53.429688 122.402344 53.570312 C 121.585938 54.035156 120.160156 54.34375 118.902344 54.414062 C 117.796875 54.453125 116.695312 54.472656 115.699219 54.222656 C 115.613281 54.199219 115.523438 54.179688 115.4375 54.164062 C 114.179688 53.835938 113.371094 53.320312 112.941406 52.679688 C 112.507812 51.914062 112.640625 51 113.46875 50.289062 C 114.394531 49.632812 115.660156 49.195312 117.320312 49.039062 C 118.925781 48.914062 120.695312 48.96875 122.011719 49.453125 Z M 122.011719 49.453125 "/>
<path style=" stroke:none;fill-rule:nonzero;fill:rgb(97.254902%,97.254902%,97.254902%);fill-opacity:1;" d="M 34.199219 48.996094 C 34.199219 49.085938 34.199219 49.085938 34.199219 49.167969 C 34.203125 49.695312 34.210938 50.207031 34.21875 50.738281 C 34.222656 51 34.226562 51.273438 34.226562 51.539062 C 34.226562 51.800781 34.230469 52.0625 34.234375 52.320312 C 34.238281 52.417969 34.238281 52.523438 34.238281 52.609375 C 34.238281 52.75 34.242188 52.894531 34.242188 53.023438 C 34.242188 53.078125 34.242188 53.117188 34.242188 53.15625 C 34.253906 53.425781 34.367188 53.582031 34.703125 53.808594 C 35.113281 53.925781 35.621094 53.925781 36.101562 53.949219 C 36.101562 54.070312 36.101562 54.191406 36.101562 54.320312 C 34.089844 54.320312 32.074219 54.320312 30 54.320312 C 30 54.199219 30 54.070312 30 53.949219 C 30.082031 53.9375 30.164062 53.9375 30.25 53.925781 C 30.410156 53.917969 30.410156 53.917969 30.578125 53.90625 C 30.734375 53.890625 30.734375 53.890625 30.898438 53.878906 C 31.253906 53.84375 31.253906 53.84375 31.601562 53.808594 C 31.898438 53.59375 31.910156 53.371094 31.914062 53.117188 C 31.914062 53.085938 31.914062 53.058594 31.914062 53.023438 C 31.914062 52.925781 31.914062 52.824219 31.914062 52.722656 C 31.914062 52.652344 31.914062 52.582031 31.917969 52.5 C 31.917969 52.359375 31.917969 52.203125 31.917969 52.058594 C 31.917969 51.859375 31.917969 51.667969 31.917969 51.488281 C 31.921875 51.335938 31.921875 51.183594 31.921875 51.039062 C 31.921875 50.96875 31.921875 50.898438 31.921875 50.828125 C 31.921875 50.726562 31.921875 50.625 31.921875 50.535156 C 31.921875 50.476562 31.921875 50.421875 31.921875 50.363281 C 31.890625 50.171875 31.816406 50.039062 31.527344 49.898438 C 31.230469 49.824219 30.964844 49.804688 30.625 49.789062 C 30.449219 49.777344 30.449219 49.777344 30.269531 49.765625 C 30.136719 49.753906 30.136719 49.753906 30 49.742188 C 30 49.625 30 49.503906 30 49.371094 C 30.5625 49.324219 31.128906 49.269531 31.695312 49.21875 C 31.890625 49.195312 32.082031 49.179688 32.273438 49.160156 C 32.554688 49.136719 32.828125 49.109375 33.109375 49.078125 C 33.191406 49.078125 33.277344 49.066406 33.367188 49.054688 C 33.976562 48.996094 33.976562 48.996094 34.199219 48.996094 Z M 34.199219 48.996094 "/>
<path style=" stroke:none;fill-rule:nonzero;fill:rgb(81.960785%,18.039216%,25.490198%);fill-opacity:1;" d="M 95.148438 21.769531 C 95.230469 21.769531 95.304688 21.769531 95.382812 21.769531 C 95.597656 21.792969 95.597656 21.792969 95.761719 21.863281 C 95.941406 22.015625 95.9375 22.109375 95.9375 22.269531 C 95.9375 22.328125 95.9375 22.390625 95.9375 22.453125 C 95.9375 22.527344 95.9375 22.585938 95.9375 22.65625 C 95.9375 22.726562 95.9375 22.800781 95.9375 22.863281 C 95.9375 23.050781 95.9375 23.242188 95.9375 23.433594 C 95.933594 23.636719 95.933594 23.828125 95.9375 24.03125 C 95.9375 24.367188 95.933594 24.703125 95.933594 25.035156 C 95.929688 25.417969 95.929688 25.808594 95.929688 26.191406 C 95.933594 26.5625 95.929688 26.9375 95.929688 27.3125 C 95.929688 27.464844 95.929688 27.628906 95.929688 27.78125 C 95.929688 27.972656 95.929688 28.152344 95.925781 28.34375 C 95.925781 28.40625 95.925781 28.476562 95.925781 28.546875 C 95.925781 28.640625 95.925781 28.734375 95.925781 28.832031 C 95.925781 28.878906 95.925781 28.933594 95.925781 28.984375 C 95.898438 29.117188 95.859375 29.199219 95.699219 29.308594 C 95.386719 29.378906 95.039062 29.390625 94.699219 29.351562 C 94.375 29.199219 94.363281 29.089844 94.363281 28.875 C 94.359375 28.816406 94.359375 28.75 94.359375 28.6875 C 94.359375 28.617188 94.359375 28.546875 94.359375 28.488281 C 94.359375 28.414062 94.359375 28.34375 94.359375 28.273438 C 94.359375 28.070312 94.359375 27.878906 94.359375 27.6875 C 94.359375 27.484375 94.359375 27.292969 94.359375 27.09375 C 94.359375 26.746094 94.359375 26.414062 94.359375 26.070312 C 94.363281 25.679688 94.363281 25.289062 94.359375 24.894531 C 94.359375 24.558594 94.359375 24.226562 94.359375 23.882812 C 94.359375 23.683594 94.359375 23.484375 94.359375 23.28125 C 94.359375 23.089844 94.359375 22.910156 94.359375 22.71875 C 94.359375 22.644531 94.359375 22.574219 94.359375 22.503906 C 94.359375 22.410156 94.359375 22.316406 94.363281 22.21875 C 94.363281 22.171875 94.363281 22.117188 94.363281 22.066406 C 94.398438 21.933594 94.398438 21.933594 94.539062 21.84375 C 94.75 21.769531 94.894531 21.769531 95.148438 21.769531 Z M 95.148438 21.769531 "/>
<path style=" stroke:none;fill-rule:nonzero;fill:rgb(27.058825%,13.725491%,15.294118%);fill-opacity:1;" d="M 80.027344 22.480469 C 80.617188 22.683594 81.03125 22.957031 81.132812 23.3125 C 81.175781 23.648438 81.011719 23.898438 80.601562 24.171875 C 80.117188 24.417969 79.664062 24.558594 78.941406 24.570312 C 78.25 24.570312 77.738281 24.558594 77.175781 24.347656 C 76.542969 24.050781 76.363281 23.789062 76.363281 23.375 C 76.375 23.089844 76.492188 22.886719 76.902344 22.671875 C 77.773438 22.339844 78.980469 22.1875 80.027344 22.480469 Z M 80.027344 22.480469 "/>
<path style=" stroke:none;fill-rule:nonzero;fill:rgb(13.725491%,13.725491%,13.725491%);fill-opacity:1;" d="M 93 51.429688 C 93.003906 51.597656 93.007812 51.773438 93.011719 51.929688 C 93.011719 51.984375 93.015625 52.035156 93.015625 52.085938 C 93.023438 52.632812 92.824219 53.070312 92.003906 53.484375 C 91.398438 53.746094 90.863281 53.828125 90.039062 53.816406 C 89.570312 53.796875 89.300781 53.675781 88.988281 53.511719 C 88.65625 53.289062 88.710938 53.046875 88.800781 52.785156 C 88.945312 52.609375 89.140625 52.488281 89.402344 52.359375 C 89.453125 52.332031 89.503906 52.308594 89.558594 52.277344 C 90.253906 51.953125 91.996094 51.429688 93 51.429688 Z M 93 51.429688 "/>
<path style=" stroke:none;fill-rule:nonzero;fill:rgb(81.568629%,18.039216%,25.490198%);fill-opacity:1;" d="M 59.78125 23.078125 C 59.859375 23.078125 59.941406 23.078125 60.019531 23.074219 C 60.28125 23.074219 60.539062 23.074219 60.796875 23.078125 C 60.976562 23.074219 61.15625 23.074219 61.335938 23.074219 C 61.714844 23.074219 62.09375 23.074219 62.46875 23.078125 C 62.953125 23.078125 63.4375 23.078125 63.917969 23.074219 C 64.289062 23.074219 64.664062 23.074219 65.035156 23.074219 C 65.214844 23.078125 65.390625 23.074219 65.570312 23.074219 C 65.820312 23.074219 66.066406 23.074219 66.320312 23.078125 C 66.390625 23.078125 66.464844 23.078125 66.542969 23.074219 C 66.878906 23.078125 67.066406 23.089844 67.347656 23.183594 C 67.570312 23.335938 67.554688 23.433594 67.5 23.621094 C 67.347656 23.71875 67.347656 23.71875 67.101562 23.800781 C 66.824219 23.820312 66.589844 23.828125 66.320312 23.820312 C 66.238281 23.820312 66.160156 23.828125 66.078125 23.828125 C 65.820312 23.828125 65.5625 23.828125 65.300781 23.828125 C 65.121094 23.828125 64.945312 23.828125 64.765625 23.828125 C 64.386719 23.828125 64.007812 23.828125 63.632812 23.820312 C 63.144531 23.820312 62.664062 23.820312 62.179688 23.828125 C 61.808594 23.828125 61.4375 23.828125 61.066406 23.828125 C 60.886719 23.828125 60.710938 23.828125 60.53125 23.828125 C 60.28125 23.828125 60.03125 23.828125 59.78125 23.820312 C 59.675781 23.828125 59.675781 23.828125 59.558594 23.828125 C 59.21875 23.820312 59.03125 23.8125 58.753906 23.71875 C 58.53125 23.566406 58.546875 23.464844 58.601562 23.28125 C 58.921875 23.074219 59.261719 23.074219 59.78125 23.078125 Z M 59.78125 23.078125 "/>
<path style=" stroke:none;fill-rule:nonzero;fill:rgb(15.294118%,15.294118%,15.294118%);fill-opacity:1;" d="M 58.734375 49.632812 C 59.234375 49.824219 59.640625 50.050781 59.726562 50.351562 C 59.738281 50.453125 59.738281 50.453125 59.703125 50.636719 C 59.496094 50.726562 59.359375 50.765625 59.070312 50.789062 C 58.992188 50.789062 58.910156 50.789062 58.824219 50.789062 C 58.730469 50.789062 58.632812 50.789062 58.539062 50.789062 C 58.4375 50.789062 58.335938 50.789062 58.230469 50.789062 C 58.128906 50.789062 58.023438 50.789062 57.921875 50.789062 C 57.585938 50.789062 57.253906 50.789062 56.921875 50.777344 C 56.699219 50.777344 56.476562 50.777344 56.25 50.777344 C 55.699219 50.777344 55.148438 50.777344 54.601562 50.777344 C 54.796875 50.300781 55.148438 49.933594 56 49.65625 C 56.785156 49.433594 57.941406 49.410156 58.734375 49.632812 Z M 58.734375 49.632812 "/>
<path style=" stroke:none;fill-rule:nonzero;fill:rgb(26.666668%,13.725491%,15.294118%);fill-opacity:1;" d="M 69.796875 32.851562 C 73.230469 32.851562 76.664062 32.851562 80.203125 32.851562 C 80.203125 32.964844 80.203125 33.0625 80.203125 33.179688 C 76.769531 33.179688 73.335938 33.179688 69.796875 33.179688 C 69.796875 33.074219 69.796875 32.964844 69.796875 32.851562 Z M 69.796875 32.851562 "/>
<path style=" stroke:none;fill-rule:nonzero;fill:rgb(81.176472%,18.039216%,25.490198%);fill-opacity:1;" d="M 70.265625 23.078125 C 70.339844 23.078125 70.414062 23.078125 70.488281 23.078125 C 70.644531 23.078125 70.796875 23.078125 70.953125 23.078125 C 71.195312 23.078125 71.429688 23.078125 71.667969 23.078125 C 71.820312 23.078125 71.96875 23.078125 72.121094 23.078125 C 72.195312 23.078125 72.261719 23.078125 72.332031 23.078125 C 72.773438 23.078125 73.050781 23.109375 73.402344 23.242188 C 73.542969 23.375 73.53125 23.464844 73.5 23.621094 C 73.351562 23.71875 73.351562 23.71875 73.097656 23.800781 C 72.808594 23.820312 72.554688 23.828125 72.265625 23.828125 C 72.144531 23.828125 72.144531 23.828125 72.023438 23.828125 C 71.851562 23.828125 71.679688 23.828125 71.511719 23.828125 C 71.25 23.828125 70.988281 23.828125 70.730469 23.828125 C 70.5625 23.828125 70.398438 23.828125 70.234375 23.828125 C 70.15625 23.828125 70.078125 23.828125 69.996094 23.828125 C 69.613281 23.828125 69.4375 23.820312 69.148438 23.683594 C 69 23.566406 69 23.566406 69 23.394531 C 69.199219 23.078125 69.632812 23.078125 70.265625 23.078125 Z M 70.265625 23.078125 "/>
<path style=" stroke:none;fill-rule:nonzero;fill:rgb(98.039216%,98.039216%,98.039216%);fill-opacity:1;" d="M 33.5 46.433594 C 33.855469 46.515625 34.089844 46.605469 34.300781 46.757812 C 34.421875 46.980469 34.417969 47.171875 34.175781 47.375 C 33.882812 47.546875 33.664062 47.628906 33.199219 47.660156 C 32.734375 47.671875 32.464844 47.660156 32.097656 47.519531 C 31.769531 47.375 31.679688 47.234375 31.65625 47.03125 C 31.660156 46.808594 31.824219 46.699219 32.152344 46.542969 C 32.539062 46.378906 33.011719 46.390625 33.5 46.433594 Z M 33.5 46.433594 "/>
<path style=" stroke:none;fill-rule:nonzero;fill:rgb(81.176472%,18.039216%,25.490198%);fill-opacity:1;" d="M 81.402344 30.101562 C 81.761719 30.269531 81.742188 30.410156 81.746094 30.648438 C 81.746094 30.707031 81.746094 30.707031 81.746094 30.777344 C 81.746094 30.816406 81.75 30.867188 81.75 30.910156 C 81.75 31.230469 81.75 31.230469 81.519531 31.386719 C 81.195312 31.484375 80.980469 31.484375 80.601562 31.457031 C 80.347656 31.351562 80.21875 31.277344 80.160156 31.121094 C 80.144531 30.992188 80.144531 30.875 80.148438 30.746094 C 80.148438 30.707031 80.144531 30.664062 80.144531 30.625 C 80.148438 30.320312 80.148438 30.320312 80.378906 30.171875 C 80.746094 30.054688 80.96875 30.078125 81.402344 30.101562 Z M 81.402344 30.101562 "/>
<path style=" stroke:none;fill-rule:nonzero;fill:rgb(81.568629%,18.039216%,25.490198%);fill-opacity:1;" d="M 77.394531 30.078125 C 77.710938 30.117188 77.8125 30.160156 78 30.292969 C 78.0625 30.445312 78.058594 30.59375 78.050781 30.746094 C 78.054688 30.792969 78.054688 30.839844 78.054688 30.875 C 78.054688 31.066406 78.039062 31.195312 77.816406 31.363281 C 77.597656 31.457031 77.597656 31.457031 77.25 31.476562 C 76.902344 31.457031 76.902344 31.457031 76.683594 31.386719 C 76.394531 31.195312 76.445312 31.007812 76.453125 30.777344 C 76.453125 30.734375 76.453125 30.683594 76.453125 30.648438 C 76.460938 30.28125 76.523438 30.078125 77.394531 30.078125 Z M 77.394531 30.078125 "/>
<path style=" stroke:none;fill-rule:nonzero;fill:rgb(80.784315%,18.039216%,25.490198%);fill-opacity:1;" d="M 73.695312 30.066406 C 74.03125 30.117188 74.128906 30.1875 74.296875 30.328125 C 74.359375 30.484375 74.355469 30.625 74.351562 30.777344 C 74.351562 30.816406 74.355469 30.859375 74.355469 30.898438 C 74.351562 31.089844 74.332031 31.195312 74.125 31.363281 C 73.886719 31.457031 73.800781 31.484375 73.492188 31.476562 C 73.097656 31.457031 73.097656 31.457031 72.925781 31.375 C 72.78125 31.253906 72.761719 31.171875 72.761719 31.03125 C 72.761719 30.980469 72.761719 30.9375 72.761719 30.886719 C 72.761719 30.847656 72.761719 30.792969 72.765625 30.746094 C 72.761719 30.707031 72.761719 30.65625 72.761719 30.601562 C 72.761719 30.566406 72.761719 30.515625 72.761719 30.472656 C 72.761719 30.433594 72.761719 30.390625 72.761719 30.351562 C 72.800781 30.242188 72.800781 30.242188 72.925781 30.160156 C 73.171875 30.078125 73.410156 30.078125 73.695312 30.066406 Z M 73.695312 30.066406 "/>
<path style=" stroke:none;fill-rule:nonzero;fill:rgb(81.176472%,18.039216%,25.490198%);fill-opacity:1;" d="M 70.199219 30.101562 C 70.558594 30.269531 70.539062 30.410156 70.546875 30.648438 C 70.542969 30.707031 70.542969 30.707031 70.542969 30.777344 C 70.546875 30.816406 70.546875 30.867188 70.550781 30.910156 C 70.546875 31.230469 70.546875 31.230469 70.320312 31.386719 C 69.992188 31.484375 69.777344 31.484375 69.398438 31.457031 C 69.152344 31.351562 69.015625 31.277344 68.960938 31.121094 C 68.945312 30.992188 68.945312 30.875 68.949219 30.746094 C 68.949219 30.707031 68.945312 30.664062 68.945312 30.625 C 68.949219 30.320312 68.949219 30.320312 69.175781 30.171875 C 69.546875 30.054688 69.765625 30.078125 70.199219 30.101562 Z M 70.199219 30.101562 "/>
<path style=" stroke:none;fill-rule:nonzero;fill:rgb(81.568629%,18.039216%,25.490198%);fill-opacity:1;" d="M 66.398438 30.101562 C 66.621094 30.171875 66.621094 30.171875 66.800781 30.292969 C 66.851562 30.445312 66.84375 30.59375 66.835938 30.757812 C 66.835938 30.792969 66.835938 30.839844 66.835938 30.875 C 66.828125 31.230469 66.828125 31.230469 66.601562 31.40625 C 66.292969 31.476562 66.035156 31.46875 65.699219 31.457031 C 65.488281 31.386719 65.417969 31.324219 65.296875 31.222656 C 65.269531 31.066406 65.269531 30.910156 65.269531 30.757812 C 65.265625 30.71875 65.261719 30.675781 65.257812 30.636719 C 65.253906 30.320312 65.253906 30.320312 65.480469 30.171875 C 65.804688 30.066406 66.023438 30.078125 66.398438 30.101562 Z M 66.398438 30.101562 "/>
<path style=" stroke:none;fill-rule:nonzero;fill:rgb(81.176472%,18.039216%,25.490198%);fill-opacity:1;" d="M 62.496094 30.066406 C 62.832031 30.117188 62.925781 30.1875 63.101562 30.328125 C 63.15625 30.484375 63.15625 30.625 63.148438 30.777344 C 63.148438 30.816406 63.152344 30.859375 63.152344 30.898438 C 63.152344 31.089844 63.128906 31.195312 62.917969 31.363281 C 62.699219 31.457031 62.699219 31.457031 62.347656 31.476562 C 62 31.457031 62 31.457031 61.78125 31.394531 C 61.492188 31.195312 61.546875 30.992188 61.554688 30.746094 C 61.554688 30.675781 61.554688 30.675781 61.554688 30.601562 C 61.558594 30.269531 61.558594 30.269531 61.726562 30.160156 C 61.96875 30.078125 62.210938 30.078125 62.496094 30.066406 Z M 62.496094 30.066406 "/>
<path style=" stroke:none;fill-rule:nonzero;fill:rgb(80.784315%,18.039216%,25.490198%);fill-opacity:1;" d="M 58.605469 30.078125 C 59 30.101562 59 30.101562 59.171875 30.160156 C 59.429688 30.320312 59.347656 30.554688 59.34375 30.746094 C 59.347656 30.792969 59.347656 30.847656 59.351562 30.886719 C 59.351562 31.230469 59.351562 31.230469 59.121094 31.394531 C 58.792969 31.484375 58.574219 31.484375 58.199219 31.457031 C 57.871094 31.3125 57.773438 31.210938 57.75 31.007812 C 57.746094 30.929688 57.75 30.859375 57.75 30.777344 C 57.75 30.734375 57.75 30.695312 57.746094 30.65625 C 57.75 30.460938 57.769531 30.363281 57.976562 30.1875 C 58.214844 30.101562 58.296875 30.066406 58.605469 30.078125 Z M 58.605469 30.078125 "/>
<path style=" stroke:none;fill-rule:nonzero;fill:rgb(81.960785%,18.039216%,25.490198%);fill-opacity:1;" d="M 84.703125 30.078125 C 84.800781 30.078125 84.800781 30.078125 84.90625 30.078125 C 85.160156 30.109375 85.238281 30.148438 85.398438 30.242188 C 85.464844 30.410156 85.445312 30.574219 85.441406 30.746094 C 85.445312 30.792969 85.445312 30.847656 85.453125 30.886719 C 85.453125 31.230469 85.453125 31.230469 85.21875 31.394531 C 84.898438 31.484375 84.664062 31.476562 84.300781 31.457031 C 84.132812 31.394531 84.132812 31.394531 84 31.3125 C 83.960938 31.203125 83.960938 31.203125 83.960938 31.066406 C 83.960938 31.019531 83.960938 30.980469 83.960938 30.929688 C 83.960938 30.875 83.960938 30.828125 83.964844 30.777344 C 83.960938 30.730469 83.960938 30.675781 83.960938 30.625 C 83.960938 30.554688 83.960938 30.554688 83.960938 30.484375 C 83.960938 30.445312 83.960938 30.390625 83.960938 30.351562 C 84.03125 30.148438 84.269531 30.078125 84.703125 30.078125 Z M 84.703125 30.078125 "/>
<path style=" stroke:none;fill-rule:nonzero;fill:rgb(32.549021%,14.117648%,16.078432%);fill-opacity:1;" d="M 78.699219 17.878906 C 79.191406 17.878906 79.691406 17.878906 80.203125 17.878906 C 80.203125 17.996094 80.203125 18.117188 80.203125 18.25 C 79.703125 18.25 79.210938 18.25 78.699219 18.25 C 78.699219 18.128906 78.699219 17.996094 78.699219 17.878906 Z M 78.699219 17.878906 "/>
</g>
</svg>
